<?xml version="1.0" encoding="UTF-8" standalone="no"?>
<!DOCTYPE svg PUBLIC "-//W3C//DTD SVG 1.1//EN"
 "http://www.w3.org/Graphics/SVG/1.1/DTD/svg11.dtd">
<!-- Generated by graphviz version 12.1.2 (20240928.0832)
 -->
<!-- Title: G Pages: 1 -->
<svg width="417pt" height="458pt"
 viewBox="0.00 0.00 417.25 458.00" xmlns="http://www.w3.org/2000/svg" xmlns:xlink="http://www.w3.org/1999/xlink">
<g id="graph0" class="graph" transform="scale(1 1) rotate(0) translate(4 454)">
<title>G</title>
<polygon fill="white" stroke="none" points="-4,4 -4,-454 413.25,-454 413.25,4 -4,4"/>
<!-- user -->
<g id="node1" class="node">
<title>user</title>
<text text-anchor="start" x="172.38" y="-314.85" font-family="Bitstream-Vera Sans" font-size="7.00">user</text>
<polygon fill="none" stroke="black" points="155.75,-309.25 155.75,-311.25 202.5,-311.25 202.5,-309.25 155.75,-309.25"/>
<text text-anchor="start" x="157.75" y="-300.6" font-family="Bitstream-Vera Sans" font-size="7.00">&#45; id</text>
<text text-anchor="start" x="157.75" y="-288.35" font-family="Bitstream-Vera Sans" font-size="7.00">&#45; name</text>
<text text-anchor="start" x="157.75" y="-276.1" font-family="Bitstream-Vera Sans" font-size="7.00">&#45; email</text>
<text text-anchor="start" x="157.75" y="-263.85" font-family="Bitstream-Vera Sans" font-size="7.00">&#45; image_file</text>
<text text-anchor="start" x="157.75" y="-251.6" font-family="Bitstream-Vera Sans" font-size="7.00">&#45; password</text>
<text text-anchor="start" x="157.75" y="-239.35" font-family="Bitstream-Vera Sans" font-size="7.00">&#45; surname</text>
<text text-anchor="start" x="157.75" y="-227.1" font-family="Bitstream-Vera Sans" font-size="7.00">&#45; firstname</text>
<text text-anchor="start" x="157.75" y="-214.85" font-family="Bitstream-Vera Sans" font-size="7.00">&#45; vds_number</text>
<polygon fill="none" stroke="black" points="154.75,-210.25 154.75,-324.5 203.5,-324.5 203.5,-210.25 154.75,-210.25"/>
</g>
<!-- group -->
<g id="node2" class="node">
<title>group</title>
<text text-anchor="start" x="91.5" y="-278.1" font-family="Bitstream-Vera Sans" font-size="7.00">group</text>
<polygon fill="none" stroke="black" points="87.25,-272.5 87.25,-274.5 113,-274.5 113,-272.5 87.25,-272.5"/>
<text text-anchor="start" x="89.25" y="-263.85" font-family="Bitstream-Vera Sans" font-size="7.00">&#45; id</text>
<text text-anchor="start" x="89.25" y="-251.6" font-family="Bitstream-Vera Sans" font-size="7.00">&#45; name</text>
<polygon fill="none" stroke="black" points="86.25,-247 86.25,-287.75 114,-287.75 114,-247 86.25,-247"/>
</g>
<!-- user_group -->
<g id="node3" class="node">
<title>user_group</title>
<text text-anchor="start" x="82.88" y="-417.98" font-family="Bitstream-Vera Sans" font-size="7.00">user_group</text>
<polygon fill="none" stroke="black" points="80.88,-412.38 80.88,-414.38 119.38,-414.38 119.38,-412.38 80.88,-412.38"/>
<text text-anchor="start" x="82.88" y="-403.73" font-family="Bitstream-Vera Sans" font-size="7.00">&#45; user_id</text>
<text text-anchor="start" x="82.88" y="-391.48" font-family="Bitstream-Vera Sans" font-size="7.00">&#45; group_id</text>
<polygon fill="none" stroke="black" points="79.88,-386.88 79.88,-427.62 120.38,-427.62 120.38,-386.88 79.88,-386.88"/>
</g>
<!-- user_group&#45;&gt;user -->
<g id="edge1" class="edge">
<title>user_group&#45;&gt;user</title>
<path fill="none" stroke="black" d="M118.34,-374.46C125.53,-361.92 134.05,-347.04 142.41,-332.45"/>
<polygon fill="black" stroke="black" points="118.49,-374.21 109.61,-380.65 115.83,-378.83 113.68,-382.59 113.68,-382.59 113.68,-382.59 115.83,-378.83 117.42,-385.12 118.49,-374.21"/>
<ellipse fill="none" stroke="black" cx="144.52" cy="-328.77" rx="4" ry="4"/>
<text text-anchor="middle" x="141.13" y="-326.46" font-family="Bitstream-Vera Sans" font-size="7.00">+ id</text>
<text text-anchor="middle" x="127.6" y="-376.52" font-family="Bitstream-Vera Sans" font-size="7.00">+ user_id</text>
</g>
<!-- user_group&#45;&gt;group -->
<g id="edge2" class="edge">
<title>user_group&#45;&gt;group</title>
<path fill="none" stroke="black" d="M100.12,-372.97C100.12,-350.93 100.12,-322.18 100.12,-300.4"/>
<polygon fill="black" stroke="black" points="100.13,-372.84 95.63,-382.84 100.13,-378.17 100.13,-382.5 100.13,-382.5 100.13,-382.5 100.13,-378.17 104.63,-382.84 100.13,-372.84"/>
<ellipse fill="none" stroke="black" cx="100.13" cy="-296.03" rx="4" ry="4"/>
<text text-anchor="middle" x="94.5" y="-293.13" font-family="Bitstream-Vera Sans" font-size="7.00">+ id</text>
<text text-anchor="middle" x="84" y="-376.52" font-family="Bitstream-Vera Sans" font-size="7.00">+ group_id</text>
</g>
<!-- role -->
<g id="node4" class="node">
<title>role</title>
<text text-anchor="start" x="21.5" y="-278.1" font-family="Bitstream-Vera Sans" font-size="7.00">role</text>
<polygon fill="none" stroke="black" points="14.25,-272.5 14.25,-274.5 40,-274.5 40,-272.5 14.25,-272.5"/>
<text text-anchor="start" x="16.25" y="-263.85" font-family="Bitstream-Vera Sans" font-size="7.00">&#45; id</text>
<text text-anchor="start" x="16.25" y="-251.6" font-family="Bitstream-Vera Sans" font-size="7.00">&#45; name</text>
<polygon fill="none" stroke="black" points="13.25,-247 13.25,-287.75 41,-287.75 41,-247 13.25,-247"/>
</g>
<!-- role_group -->
<g id="node5" class="node">
<title>role_group</title>
<text text-anchor="start" x="11" y="-417.98" font-family="Bitstream-Vera Sans" font-size="7.00">role_group</text>
<polygon fill="none" stroke="black" points="9,-412.38 9,-414.38 45.25,-414.38 45.25,-412.38 9,-412.38"/>
<text text-anchor="start" x="11" y="-403.73" font-family="Bitstream-Vera Sans" font-size="7.00">&#45; role_id</text>
<text text-anchor="start" x="11" y="-391.48" font-family="Bitstream-Vera Sans" font-size="7.00">&#45; group_id</text>
<polygon fill="none" stroke="black" points="8,-386.88 8,-427.62 46.25,-427.62 46.25,-386.88 8,-386.88"/>
</g>
<!-- role_group&#45;&gt;group -->
<g id="edge3" class="edge">
<title>role_group&#45;&gt;group</title>
<path fill="none" stroke="black" d="M44.21,-373.98C56.13,-351.46 71.96,-321.57 83.73,-299.34"/>
<polygon fill="black" stroke="black" points="44.18,-374.04 35.52,-380.77 41.68,-378.75 39.66,-382.58 39.66,-382.58 39.66,-382.58 41.68,-378.75 43.48,-384.98 44.18,-374.04"/>
<ellipse fill="none" stroke="black" cx="85.76" cy="-295.5" rx="4" ry="4"/>
<text text-anchor="middle" x="82.24" y="-293.13" font-family="Bitstream-Vera Sans" font-size="7.00">+ id</text>
<text text-anchor="middle" x="47.41" y="-376.52" font-family="Bitstream-Vera Sans" font-size="7.00">+ group_id</text>
</g>
<!-- role_group&#45;&gt;role -->
<g id="edge4" class="edge">
<title>role_group&#45;&gt;role</title>
<path fill="none" stroke="black" d="M27.12,-372.97C27.12,-350.93 27.12,-322.18 27.12,-300.4"/>
<polygon fill="black" stroke="black" points="27.13,-372.84 22.63,-382.84 27.13,-378.17 27.13,-382.5 27.13,-382.5 27.13,-382.5 27.13,-378.17 31.63,-382.84 27.13,-372.84"/>
<ellipse fill="none" stroke="black" cx="27.13" cy="-296.03" rx="4" ry="4"/>
<text text-anchor="middle" x="21.5" y="-293.13" font-family="Bitstream-Vera Sans" font-size="7.00">+ id</text>
<text text-anchor="middle" x="14" y="-376.52" font-family="Bitstream-Vera Sans" font-size="7.00">+ role_id</text>
</g>
<!-- post -->
<g id="node6" class="node">
<title>post</title>
<text text-anchor="start" x="172.38" y="-436.35" font-family="Bitstream-Vera Sans" font-size="7.00">post</text>
<polygon fill="none" stroke="black" points="155.75,-430.75 155.75,-432.75 202.5,-432.75 202.5,-430.75 155.75,-430.75"/>
<text text-anchor="start" x="157.75" y="-422.1" font-family="Bitstream-Vera Sans" font-size="7.00">&#45; id</text>
<text text-anchor="start" x="157.75" y="-409.85" font-family="Bitstream-Vera Sans" font-size="7.00">&#45; title</text>
<text text-anchor="start" x="157.75" y="-397.6" font-family="Bitstream-Vera Sans" font-size="7.00">&#45; date_posted</text>
<text text-anchor="start" x="157.75" y="-385.35" font-family="Bitstream-Vera Sans" font-size="7.00">&#45; content</text>
<text text-anchor="start" x="157.75" y="-373.1" font-family="Bitstream-Vera Sans" font-size="7.00">&#45; user_id</text>
<polygon fill="none" stroke="black" points="154.75,-368.5 154.75,-446 203.5,-446 203.5,-368.5 154.75,-368.5"/>
</g>
<!-- post&#45;&gt;user -->
<g id="edge5" class="edge">
<title>post&#45;&gt;user</title>
<path fill="none" stroke="black" d="M179.12,-354.07C179.12,-348.54 179.12,-342.86 179.12,-337.19"/>
<polygon fill="black" stroke="black" points="179.13,-354.17 174.63,-364.17 179.13,-359.51 179.13,-363.84 179.13,-363.84 179.13,-363.84 179.13,-359.51 183.63,-364.17 179.13,-354.17"/>
<ellipse fill="none" stroke="black" cx="179.13" cy="-332.79" rx="4" ry="4"/>
<text text-anchor="middle" x="173.5" y="-329.89" font-family="Bitstream-Vera Sans" font-size="7.00">+ id</text>
<text text-anchor="middle" x="164.88" y="-357.86" font-family="Bitstream-Vera Sans" font-size="7.00">+ user_id</text>
</g>
<!-- site -->
<g id="node7" class="node">
<title>site</title>
<text text-anchor="start" x="268.5" y="-59.6" font-family="Bitstream-Vera Sans" font-size="7.00">site</text>
<polygon fill="none" stroke="black" points="256,-54 256,-56 292.25,-56 292.25,-54 256,-54"/>
<text text-anchor="start" x="258" y="-45.35" font-family="Bitstream-Vera Sans" font-size="7.00">&#45; id</text>
<text text-anchor="start" x="258" y="-33.1" font-family="Bitstream-Vera Sans" font-size="7.00">&#45; name</text>
<text text-anchor="start" x="258" y="-20.85" font-family="Bitstream-Vera Sans" font-size="7.00">&#45; longitude</text>
<text text-anchor="start" x="258" y="-8.6" font-family="Bitstream-Vera Sans" font-size="7.00">&#45; lattitude</text>
<polygon fill="none" stroke="black" points="255,-4 255,-69.25 293.25,-69.25 293.25,-4 255,-4"/>
</g>
<!-- observatory -->
<g id="node8" class="node">
<title>observatory</title>
<text text-anchor="start" x="255.75" y="-156.6" font-family="Bitstream-Vera Sans" font-size="7.00">observatory</text>
<polygon fill="none" stroke="black" points="253.75,-151 253.75,-153 294.5,-153 294.5,-151 253.75,-151"/>
<text text-anchor="start" x="255.75" y="-142.35" font-family="Bitstream-Vera Sans" font-size="7.00">&#45; id</text>
<text text-anchor="start" x="255.75" y="-130.1" font-family="Bitstream-Vera Sans" font-size="7.00">&#45; name</text>
<text text-anchor="start" x="255.75" y="-117.85" font-family="Bitstream-Vera Sans" font-size="7.00">&#45; site_id</text>
<polygon fill="none" stroke="black" points="252.75,-113.25 252.75,-166.25 295.5,-166.25 295.5,-113.25 252.75,-113.25"/>
</g>
<!-- observatory&#45;&gt;site -->
<g id="edge6" class="edge">
<title>observatory&#45;&gt;site</title>
<path fill="none" stroke="black" d="M274.12,-99.21C274.12,-93.52 274.12,-87.63 274.12,-81.85"/>
<polygon fill="black" stroke="black" points="274.13,-99.17 269.63,-109.17 274.13,-104.5 274.13,-108.83 274.13,-108.83 274.13,-108.83 274.13,-104.5 278.63,-109.17 274.13,-99.17"/>
<ellipse fill="none" stroke="black" cx="274.13" cy="-77.4" rx="4" ry="4"/>
<text text-anchor="middle" x="279.75" y="-74.5" font-family="Bitstream-Vera Sans" font-size="7.00">+ id</text>
<text text-anchor="middle" x="261" y="-102.85" font-family="Bitstream-Vera Sans" font-size="7.00">+ site_id</text>
</g>
<!-- telescope -->
<g id="node9" class="node">
<title>telescope</title>
<text text-anchor="start" x="259.12" y="-302.6" font-family="Bitstream-Vera Sans" font-size="7.00">telescope</text>
<polygon fill="none" stroke="black" points="243.25,-297 243.25,-299 305,-299 305,-297 243.25,-297"/>
<text text-anchor="start" x="245.25" y="-288.35" font-family="Bitstream-Vera Sans" font-size="7.00">&#45; id</text>
<text text-anchor="start" x="245.25" y="-276.1" font-family="Bitstream-Vera Sans" font-size="7.00">&#45; name</text>
<text text-anchor="start" x="245.25" y="-263.85" font-family="Bitstream-Vera Sans" font-size="7.00">&#45; observatory_id</text>
<text text-anchor="start" x="245.25" y="-251.6" font-family="Bitstream-Vera Sans" font-size="7.00">&#45; aperature_mm</text>
<text text-anchor="start" x="245.25" y="-239.35" font-family="Bitstream-Vera Sans" font-size="7.00">&#45; focal_length_mm</text>
<text text-anchor="start" x="245.25" y="-227.1" font-family="Bitstream-Vera Sans" font-size="7.00">&#45; camera_name</text>
<polygon fill="none" stroke="black" points="242.25,-222.5 242.25,-312.25 306,-312.25 306,-222.5 242.25,-222.5"/>
</g>
<!-- telescope&#45;&gt;observatory -->
<g id="edge7" class="edge">
<title>telescope&#45;&gt;observatory</title>
<path fill="none" stroke="black" d="M274.12,-208.41C274.12,-198.4 274.12,-188.23 274.12,-178.91"/>
<polygon fill="black" stroke="black" points="274.13,-208.19 269.63,-218.19 274.13,-213.52 274.13,-217.85 274.13,-217.85 274.13,-217.85 274.13,-213.52 278.63,-218.19 274.13,-208.19"/>
<ellipse fill="none" stroke="black" cx="274.13" cy="-174.42" rx="4" ry="4"/>
<text text-anchor="middle" x="279.75" y="-171.52" font-family="Bitstream-Vera Sans" font-size="7.00">+ id</text>
<text text-anchor="middle" x="248.25" y="-211.87" font-family="Bitstream-Vera Sans" font-size="7.00">+ observatory_id</text>
</g>
<!-- observations_request -->
<g id="node10" class="node">
<title>observations_request</title>
<text text-anchor="start" x="240.75" y="-430.23" font-family="Bitstream-Vera Sans" font-size="7.00">observations_request</text>
<polygon fill="none" stroke="black" points="238.75,-424.62 238.75,-426.62 309.5,-426.62 309.5,-424.62 238.75,-424.62"/>
<text text-anchor="start" x="240.75" y="-415.98" font-family="Bitstream-Vera Sans" font-size="7.00">&#45; id</text>
<text text-anchor="start" x="240.75" y="-403.73" font-family="Bitstream-Vera Sans" font-size="7.00">&#45; name</text>
<text text-anchor="start" x="240.75" y="-391.48" font-family="Bitstream-Vera Sans" font-size="7.00">&#45; user_id</text>
<text text-anchor="start" x="240.75" y="-379.23" font-family="Bitstream-Vera Sans" font-size="7.00">&#45; telescope_id</text>
<polygon fill="none" stroke="black" points="237.75,-374.62 237.75,-439.88 310.5,-439.88 310.5,-374.62 237.75,-374.62"/>
</g>
<!-- observations_request&#45;&gt;user -->
<g id="edge9" class="edge">
<title>observations_request&#45;&gt;user</title>
<path fill="none" stroke="black" d="M243.74,-362.16C235.04,-349.52 225.44,-335.59 216.37,-322.43"/>
<polygon fill="black" stroke="black" points="243.8,-362.23 245.76,-373.02 246.82,-366.63 249.28,-370.19 249.28,-370.19 249.28,-370.19 246.82,-366.63 253.18,-367.92 243.8,-362.23"/>
<ellipse fill="none" stroke="black" cx="213.94" cy="-318.91" rx="4" ry="4"/>
<text text-anchor="middle" x="217.02" y="-316.8" font-family="Bitstream-Vera Sans" font-size="7.00">+ id</text>
<text text-anchor="middle" x="235.41" y="-364.09" font-family="Bitstream-Vera Sans" font-size="7.00">+ user_id</text>
</g>
<!-- observations_request&#45;&gt;telescope -->
<g id="edge8" class="edge">
<title>observations_request&#45;&gt;telescope</title>
<path fill="none" stroke="black" d="M274.12,-360.67C274.12,-349.31 274.12,-336.99 274.12,-325.16"/>
<polygon fill="black" stroke="black" points="274.13,-360.41 269.63,-370.41 274.13,-365.74 274.13,-370.07 274.13,-370.07 274.13,-370.07 274.13,-365.74 278.63,-370.41 274.13,-360.41"/>
<ellipse fill="none" stroke="black" cx="274.13" cy="-320.73" rx="4" ry="4"/>
<text text-anchor="middle" x="268.5" y="-317.83" font-family="Bitstream-Vera Sans" font-size="7.00">+ id</text>
<text text-anchor="middle" x="296.62" y="-364.09" font-family="Bitstream-Vera Sans" font-size="7.00">+ telescope_id</text>
</g>
<!-- alembic_version -->
<g id="node11" class="node">
<title>alembic_version</title>
<text text-anchor="start" x="348" y="-411.85" font-family="Bitstream-Vera Sans" font-size="7.00">alembic_version</text>
<polygon fill="none" stroke="black" points="346,-406.25 346,-408.25 400.25,-408.25 400.25,-406.25 346,-406.25"/>
<text text-anchor="start" x="348" y="-397.6" font-family="Bitstream-Vera Sans" font-size="7.00">&#45; version_num</text>
<polygon fill="none" stroke="black" points="345,-393 345,-421.5 401.25,-421.5 401.25,-393 345,-393"/>
</g>
</g>
</svg>
