<?xml version="1.0" encoding="UTF-8" standalone="no"?>
<!DOCTYPE svg PUBLIC "-//W3C//DTD SVG 1.1//EN"
 "http://www.w3.org/Graphics/SVG/1.1/DTD/svg11.dtd">
<!-- Generated by graphviz version 2.43.0 (0)
 -->
<!-- Title: G Pages: 1 -->
<svg width="1315pt" height="788pt"
 viewBox="0.00 0.00 1315.00 788.00" xmlns="http://www.w3.org/2000/svg" xmlns:xlink="http://www.w3.org/1999/xlink">
<g id="graph0" class="graph" transform="scale(1 1) rotate(0) translate(4 784)">
<title>G</title>
<polygon fill="white" stroke="transparent" points="-4,4 -4,-784 1311,-784 1311,4 -4,4"/>
<!-- user -->
<g id="node1" class="node">
<title>user</title>
<text text-anchor="start" x="123.5" y="-323.4" font-family="Bitstream-Vera Sans" font-size="7.00">user</text>
<polygon fill="none" stroke="black" points="106,-317 106,-319 156,-319 156,-317 106,-317"/>
<text text-anchor="start" x="108" y="-309.4" font-family="Bitstream-Vera Sans" font-size="7.00">&#45; id</text>
<text text-anchor="start" x="108" y="-297.4" font-family="Bitstream-Vera Sans" font-size="7.00">&#45; name</text>
<text text-anchor="start" x="108" y="-285.4" font-family="Bitstream-Vera Sans" font-size="7.00">&#45; email</text>
<text text-anchor="start" x="108" y="-273.4" font-family="Bitstream-Vera Sans" font-size="7.00">&#45; image_file</text>
<text text-anchor="start" x="108" y="-261.4" font-family="Bitstream-Vera Sans" font-size="7.00">&#45; password</text>
<text text-anchor="start" x="108" y="-249.4" font-family="Bitstream-Vera Sans" font-size="7.00">&#45; surname</text>
<text text-anchor="start" x="108" y="-237.4" font-family="Bitstream-Vera Sans" font-size="7.00">&#45; firstname</text>
<text text-anchor="start" x="108" y="-225.4" font-family="Bitstream-Vera Sans" font-size="7.00">&#45; vds_number</text>
<text text-anchor="start" x="108" y="-213.4" font-family="Bitstream-Vera Sans" font-size="7.00">&#45; last_login</text>
<polygon fill="none" stroke="black" points="105,-208 105,-332 157,-332 157,-208 105,-208"/>
</g>
<!-- user_preferences -->
<g id="node2" class="node">
<title>user_preferences</title>
<text text-anchor="start" x="95" y="-473.4" font-family="Bitstream-Vera Sans" font-size="7.00">user_preferences</text>
<polygon fill="none" stroke="black" points="93,-467 93,-469 153,-469 153,-467 93,-467"/>
<text text-anchor="start" x="95" y="-459.4" font-family="Bitstream-Vera Sans" font-size="7.00">&#45; id</text>
<text text-anchor="start" x="95" y="-447.4" font-family="Bitstream-Vera Sans" font-size="7.00">&#45; user_id</text>
<text text-anchor="start" x="95" y="-435.4" font-family="Bitstream-Vera Sans" font-size="7.00">&#45; key</text>
<text text-anchor="start" x="95" y="-423.4" font-family="Bitstream-Vera Sans" font-size="7.00">&#45; value</text>
<polygon fill="none" stroke="black" points="92,-418 92,-482 154,-482 154,-418 92,-418"/>
</g>
<!-- user_preferences&#45;&gt;user -->
<g id="edge1" class="edge">
<title>user_preferences&#45;&gt;user</title>
<path fill="none" stroke="black" d="M125.03,-403.84C125.84,-385.85 126.79,-364.68 127.69,-344.59"/>
<polygon fill="black" stroke="black" points="125.03,-403.84 120.09,-413.63 124.81,-408.84 124.58,-413.83 124.58,-413.83 124.58,-413.83 124.81,-408.84 129.08,-414.04 125.03,-403.84 125.03,-403.84"/>
<ellipse fill="none" stroke="black" cx="127.88" cy="-340.35" rx="4" ry="4"/>
<text text-anchor="middle" x="122.06" y="-338.75" font-family="Bitstream-Vera Sans" font-size="7.00">+ id</text>
<text text-anchor="middle" x="110.08" y="-408.23" font-family="Bitstream-Vera Sans" font-size="7.00">+ user_id</text>
</g>
<!-- group -->
<g id="node3" class="node">
<title>group</title>
<text text-anchor="start" x="203.5" y="-281.4" font-family="Bitstream-Vera Sans" font-size="7.00">group</text>
<polygon fill="none" stroke="black" points="201,-275 201,-277 228,-277 228,-275 201,-275"/>
<text text-anchor="start" x="203" y="-267.4" font-family="Bitstream-Vera Sans" font-size="7.00">&#45; id</text>
<text text-anchor="start" x="203" y="-255.4" font-family="Bitstream-Vera Sans" font-size="7.00">&#45; name</text>
<polygon fill="none" stroke="black" points="199.5,-250 199.5,-290 228.5,-290 228.5,-250 199.5,-250"/>
</g>
<!-- user_group -->
<g id="node4" class="node">
<title>user_group</title>
<text text-anchor="start" x="192" y="-461.4" font-family="Bitstream-Vera Sans" font-size="7.00">user_group</text>
<polygon fill="none" stroke="black" points="190,-455 190,-457 233,-457 233,-455 190,-455"/>
<text text-anchor="start" x="192" y="-447.4" font-family="Bitstream-Vera Sans" font-size="7.00">&#45; user_id</text>
<text text-anchor="start" x="192" y="-435.4" font-family="Bitstream-Vera Sans" font-size="7.00">&#45; group_id</text>
<polygon fill="none" stroke="black" points="188.5,-430 188.5,-470 233.5,-470 233.5,-430 188.5,-430"/>
</g>
<!-- user_group&#45;&gt;user -->
<g id="edge3" class="edge">
<title>user_group&#45;&gt;user</title>
<path fill="none" stroke="black" d="M196.32,-416.34C187.15,-395.92 174.95,-368.79 163.58,-343.5"/>
<polygon fill="black" stroke="black" points="196.44,-416.61 196.44,-427.57 198.49,-421.17 200.54,-425.73 200.54,-425.73 200.54,-425.73 198.49,-421.17 204.65,-423.88 196.44,-416.61 196.44,-416.61"/>
<ellipse fill="none" stroke="black" cx="161.88" cy="-339.72" rx="4" ry="4"/>
<text text-anchor="middle" x="154.24" y="-338.47" font-family="Bitstream-Vera Sans" font-size="7.00">+ id</text>
<text text-anchor="middle" x="186.04" y="-420.13" font-family="Bitstream-Vera Sans" font-size="7.00">+ user_id</text>
</g>
<!-- user_group&#45;&gt;group -->
<g id="edge2" class="edge">
<title>user_group&#45;&gt;group</title>
<path fill="none" stroke="black" d="M211.57,-415.42C212.11,-382.92 212.94,-334.06 213.47,-302.34"/>
<polygon fill="black" stroke="black" points="211.56,-415.73 206.89,-425.65 211.48,-420.73 211.39,-425.73 211.39,-425.73 211.39,-425.73 211.48,-420.73 215.89,-425.81 211.56,-415.73 211.56,-415.73"/>
<ellipse fill="none" stroke="black" cx="213.54" cy="-298.28" rx="4" ry="4"/>
<text text-anchor="middle" x="207.61" y="-296.68" font-family="Bitstream-Vera Sans" font-size="7.00">+ id</text>
<text text-anchor="middle" x="229.39" y="-420.13" font-family="Bitstream-Vera Sans" font-size="7.00">+ group_id</text>
</g>
<!-- role -->
<g id="node5" class="node">
<title>role</title>
<text text-anchor="start" x="283" y="-281.4" font-family="Bitstream-Vera Sans" font-size="7.00">role</text>
<polygon fill="none" stroke="black" points="276,-275 276,-277 303,-277 303,-275 276,-275"/>
<text text-anchor="start" x="278" y="-267.4" font-family="Bitstream-Vera Sans" font-size="7.00">&#45; id</text>
<text text-anchor="start" x="278" y="-255.4" font-family="Bitstream-Vera Sans" font-size="7.00">&#45; name</text>
<polygon fill="none" stroke="black" points="274.5,-250 274.5,-290 303.5,-290 303.5,-250 274.5,-250"/>
</g>
<!-- role_group -->
<g id="node6" class="node">
<title>role_group</title>
<text text-anchor="start" x="271" y="-461.4" font-family="Bitstream-Vera Sans" font-size="7.00">role_group</text>
<polygon fill="none" stroke="black" points="269,-455 269,-457 310,-457 310,-455 269,-455"/>
<text text-anchor="start" x="271" y="-447.4" font-family="Bitstream-Vera Sans" font-size="7.00">&#45; role_id</text>
<text text-anchor="start" x="271" y="-435.4" font-family="Bitstream-Vera Sans" font-size="7.00">&#45; group_id</text>
<polygon fill="none" stroke="black" points="267.5,-430 267.5,-470 310.5,-470 310.5,-430 267.5,-430"/>
</g>
<!-- role_group&#45;&gt;group -->
<g id="edge5" class="edge">
<title>role_group&#45;&gt;group</title>
<path fill="none" stroke="black" d="M275.23,-416.33C261.5,-383.73 240.55,-334.01 227.07,-302.01"/>
<polygon fill="black" stroke="black" points="275.31,-416.51 275.05,-427.48 277.25,-421.12 279.2,-425.73 279.2,-425.73 279.2,-425.73 277.25,-421.12 283.34,-423.98 275.31,-416.51 275.31,-416.51"/>
<ellipse fill="none" stroke="black" cx="225.36" cy="-297.96" rx="4" ry="4"/>
<text text-anchor="middle" x="229.81" y="-296.68" font-family="Bitstream-Vera Sans" font-size="7.00">+ id</text>
<text text-anchor="middle" x="297.2" y="-420.13" font-family="Bitstream-Vera Sans" font-size="7.00">+ group_id</text>
</g>
<!-- role_group&#45;&gt;role -->
<g id="edge4" class="edge">
<title>role_group&#45;&gt;role</title>
<path fill="none" stroke="black" d="M289,-415.42C289,-382.92 289,-334.06 289,-302.34"/>
<polygon fill="black" stroke="black" points="289,-415.73 284.5,-425.73 289,-420.73 289,-425.73 289,-425.73 289,-425.73 289,-420.73 293.5,-425.73 289,-415.73 289,-415.73"/>
<ellipse fill="none" stroke="black" cx="289" cy="-298.28" rx="4" ry="4"/>
<text text-anchor="middle" x="283" y="-296.68" font-family="Bitstream-Vera Sans" font-size="7.00">+ id</text>
<text text-anchor="middle" x="275" y="-420.13" font-family="Bitstream-Vera Sans" font-size="7.00">+ role_id</text>
</g>
<!-- post -->
<g id="node7" class="node">
<title>post</title>
<text text-anchor="start" x="25.5" y="-479.4" font-family="Bitstream-Vera Sans" font-size="7.00">post</text>
<polygon fill="none" stroke="black" points="9,-473 9,-475 57,-475 57,-473 9,-473"/>
<text text-anchor="start" x="11" y="-465.4" font-family="Bitstream-Vera Sans" font-size="7.00">&#45; id</text>
<text text-anchor="start" x="11" y="-453.4" font-family="Bitstream-Vera Sans" font-size="7.00">&#45; title</text>
<text text-anchor="start" x="11" y="-441.4" font-family="Bitstream-Vera Sans" font-size="7.00">&#45; date_posted</text>
<text text-anchor="start" x="11" y="-429.4" font-family="Bitstream-Vera Sans" font-size="7.00">&#45; content</text>
<text text-anchor="start" x="11" y="-417.4" font-family="Bitstream-Vera Sans" font-size="7.00">&#45; user_id</text>
<polygon fill="none" stroke="black" points="8,-412 8,-488 58,-488 58,-412 8,-412"/>
</g>
<!-- post&#45;&gt;user -->
<g id="edge6" class="edge">
<title>post&#45;&gt;user</title>
<path fill="none" stroke="black" d="M60.23,-398.96C65.14,-389.98 70.21,-380.71 75,-372 80.79,-361.48 86.93,-350.35 92.95,-339.48"/>
<polygon fill="black" stroke="black" points="60.19,-399.03 51.45,-405.66 57.79,-403.42 55.4,-407.81 55.4,-407.81 55.4,-407.81 57.79,-403.42 59.35,-409.97 60.19,-399.03 60.19,-399.03"/>
<ellipse fill="none" stroke="black" cx="94.94" cy="-335.88" rx="4" ry="4"/>
<text text-anchor="middle" x="90.88" y="-334.79" font-family="Bitstream-Vera Sans" font-size="7.00">+ id</text>
<text text-anchor="middle" x="40.9" y="-402.21" font-family="Bitstream-Vera Sans" font-size="7.00">+ user_id</text>
</g>
<!-- site -->
<g id="node8" class="node">
<title>site</title>
<text text-anchor="start" x="424.5" y="-59.4" font-family="Bitstream-Vera Sans" font-size="7.00">site</text>
<polygon fill="none" stroke="black" points="410,-53 410,-55 450,-55 450,-53 410,-53"/>
<text text-anchor="start" x="412" y="-45.4" font-family="Bitstream-Vera Sans" font-size="7.00">&#45; id</text>
<text text-anchor="start" x="412" y="-33.4" font-family="Bitstream-Vera Sans" font-size="7.00">&#45; name</text>
<text text-anchor="start" x="412" y="-21.4" font-family="Bitstream-Vera Sans" font-size="7.00">&#45; longitude</text>
<text text-anchor="start" x="412" y="-9.4" font-family="Bitstream-Vera Sans" font-size="7.00">&#45; lattitude</text>
<polygon fill="none" stroke="black" points="409,-4 409,-68 451,-68 451,-4 409,-4"/>
</g>
<!-- observatory -->
<g id="node9" class="node">
<title>observatory</title>
<text text-anchor="start" x="410" y="-155.4" font-family="Bitstream-Vera Sans" font-size="7.00">observatory</text>
<polygon fill="none" stroke="black" points="408,-149 408,-151 452,-151 452,-149 408,-149"/>
<text text-anchor="start" x="410" y="-141.4" font-family="Bitstream-Vera Sans" font-size="7.00">&#45; id</text>
<text text-anchor="start" x="410" y="-129.4" font-family="Bitstream-Vera Sans" font-size="7.00">&#45; name</text>
<text text-anchor="start" x="410" y="-117.4" font-family="Bitstream-Vera Sans" font-size="7.00">&#45; site_id</text>
<polygon fill="none" stroke="black" points="407,-112 407,-164 453,-164 453,-112 407,-112"/>
</g>
<!-- observatory&#45;&gt;site -->
<g id="edge7" class="edge">
<title>observatory&#45;&gt;site</title>
<path fill="none" stroke="black" d="M430,-97.75C430,-92.06 430,-86.17 430,-80.4"/>
<polygon fill="black" stroke="black" points="430,-97.81 425.5,-107.81 430,-102.81 430,-107.81 430,-107.81 430,-107.81 430,-102.81 434.5,-107.81 430,-97.81 430,-97.81"/>
<ellipse fill="none" stroke="black" cx="430" cy="-76.07" rx="4" ry="4"/>
<text text-anchor="middle" x="424" y="-74.47" font-family="Bitstream-Vera Sans" font-size="7.00">+ id</text>
<text text-anchor="middle" x="417.5" y="-102.21" font-family="Bitstream-Vera Sans" font-size="7.00">+ site_id</text>
</g>
<!-- telescope -->
<g id="node10" class="node">
<title>telescope</title>
<text text-anchor="start" x="490.5" y="-311.4" font-family="Bitstream-Vera Sans" font-size="7.00">telescope</text>
<polygon fill="none" stroke="black" points="474,-305 474,-307 538,-307 538,-305 474,-305"/>
<text text-anchor="start" x="476" y="-297.4" font-family="Bitstream-Vera Sans" font-size="7.00">&#45; id</text>
<text text-anchor="start" x="476" y="-285.4" font-family="Bitstream-Vera Sans" font-size="7.00">&#45; name</text>
<text text-anchor="start" x="476" y="-273.4" font-family="Bitstream-Vera Sans" font-size="7.00">&#45; observatory_id</text>
<text text-anchor="start" x="476" y="-261.4" font-family="Bitstream-Vera Sans" font-size="7.00">&#45; aperature_mm</text>
<text text-anchor="start" x="476" y="-249.4" font-family="Bitstream-Vera Sans" font-size="7.00">&#45; focal_length_mm</text>
<text text-anchor="start" x="476" y="-237.4" font-family="Bitstream-Vera Sans" font-size="7.00">&#45; camera_name</text>
<text text-anchor="start" x="476" y="-225.4" font-family="Bitstream-Vera Sans" font-size="7.00">&#45; status</text>
<polygon fill="none" stroke="black" points="473,-220 473,-320 539,-320 539,-220 473,-220"/>
</g>
<!-- telescope&#45;&gt;observatory -->
<g id="edge8" class="edge">
<title>telescope&#45;&gt;observatory</title>
<path fill="none" stroke="black" d="M469.7,-206.91C463.33,-196.02 456.9,-185.02 451.13,-175.14"/>
<polygon fill="black" stroke="black" points="469.82,-207.12 470.98,-218.02 472.35,-211.43 474.87,-215.75 474.87,-215.75 474.87,-215.75 472.35,-211.43 478.75,-213.48 469.82,-207.12 469.82,-207.12"/>
<ellipse fill="none" stroke="black" cx="449.07" cy="-171.61" rx="4" ry="4"/>
<text text-anchor="middle" x="441.05" y="-170.56" font-family="Bitstream-Vera Sans" font-size="7.00">+ id</text>
<text text-anchor="middle" x="502.37" y="-210.15" font-family="Bitstream-Vera Sans" font-size="7.00">+ observatory_id</text>
</g>
<!-- filterset -->
<g id="node11" class="node">
<title>filterset</title>
<text text-anchor="start" x="486" y="-473.4" font-family="Bitstream-Vera Sans" font-size="7.00">filterset</text>
<polygon fill="none" stroke="black" points="475,-467 475,-469 522,-469 522,-467 475,-467"/>
<text text-anchor="start" x="477" y="-459.4" font-family="Bitstream-Vera Sans" font-size="7.00">&#45; id</text>
<text text-anchor="start" x="477" y="-447.4" font-family="Bitstream-Vera Sans" font-size="7.00">&#45; name</text>
<text text-anchor="start" x="477" y="-435.4" font-family="Bitstream-Vera Sans" font-size="7.00">&#45; telescope_id</text>
<text text-anchor="start" x="477" y="-423.4" font-family="Bitstream-Vera Sans" font-size="7.00">&#45; quantity</text>
<polygon fill="none" stroke="black" points="473.5,-418 473.5,-482 522.5,-482 522.5,-418 473.5,-418"/>
</g>
<!-- filterset&#45;&gt;telescope -->
<g id="edge9" class="edge">
<title>filterset&#45;&gt;telescope</title>
<path fill="none" stroke="black" d="M500.04,-403.52C501.01,-381.92 502.19,-355.79 503.24,-332.46"/>
<polygon fill="black" stroke="black" points="500.03,-403.84 495.09,-413.63 499.81,-408.84 499.58,-413.83 499.58,-413.83 499.58,-413.83 499.81,-408.84 504.08,-414.04 500.03,-403.84 500.03,-403.84"/>
<ellipse fill="none" stroke="black" cx="503.42" cy="-328.33" rx="4" ry="4"/>
<text text-anchor="middle" x="497.6" y="-326.74" font-family="Bitstream-Vera Sans" font-size="7.00">+ id</text>
<text text-anchor="middle" x="477.08" y="-408.23" font-family="Bitstream-Vera Sans" font-size="7.00">+ telescope_id</text>
</g>
<!-- poweruser -->
<g id="node12" class="node">
<title>poweruser</title>
<text text-anchor="start" x="398" y="-317.4" font-family="Bitstream-Vera Sans" font-size="7.00">poweruser</text>
<polygon fill="none" stroke="black" points="393,-311 393,-313 438,-313 438,-311 393,-311"/>
<text text-anchor="start" x="395" y="-303.4" font-family="Bitstream-Vera Sans" font-size="7.00">&#45; id</text>
<text text-anchor="start" x="395" y="-291.4" font-family="Bitstream-Vera Sans" font-size="7.00">&#45; name</text>
<text text-anchor="start" x="395" y="-279.4" font-family="Bitstream-Vera Sans" font-size="7.00">&#45; email</text>
<text text-anchor="start" x="395" y="-267.4" font-family="Bitstream-Vera Sans" font-size="7.00">&#45; mobilfone</text>
<text text-anchor="start" x="395" y="-255.4" font-family="Bitstream-Vera Sans" font-size="7.00">&#45; fone</text>
<text text-anchor="start" x="395" y="-243.4" font-family="Bitstream-Vera Sans" font-size="7.00">&#45; Einweisung</text>
<text text-anchor="start" x="395" y="-231.4" font-family="Bitstream-Vera Sans" font-size="7.00">&#45; Status</text>
<text text-anchor="start" x="395" y="-219.4" font-family="Bitstream-Vera Sans" font-size="7.00">&#45; last_login</text>
<polygon fill="none" stroke="black" points="391.5,-214 391.5,-326 438.5,-326 438.5,-214 391.5,-214"/>
</g>
<!-- observation_request -->
<g id="node13" class="node">
<title>observation_request</title>
<text text-anchor="start" x="355" y="-515.4" font-family="Bitstream-Vera Sans" font-size="7.00">observation_request</text>
<polygon fill="none" stroke="black" points="346,-509 346,-511 431,-511 431,-509 346,-509"/>
<text text-anchor="start" x="348" y="-501.4" font-family="Bitstream-Vera Sans" font-size="7.00">&#45; id</text>
<text text-anchor="start" x="348" y="-489.4" font-family="Bitstream-Vera Sans" font-size="7.00">&#45; name</text>
<text text-anchor="start" x="348" y="-477.4" font-family="Bitstream-Vera Sans" font-size="7.00">&#45; user_id</text>
<text text-anchor="start" x="348" y="-465.4" font-family="Bitstream-Vera Sans" font-size="7.00">&#45; date_created</text>
<text text-anchor="start" x="348" y="-453.4" font-family="Bitstream-Vera Sans" font-size="7.00">&#45; request_date</text>
<text text-anchor="start" x="348" y="-441.4" font-family="Bitstream-Vera Sans" font-size="7.00">&#45; request_observatory_id</text>
<text text-anchor="start" x="348" y="-429.4" font-family="Bitstream-Vera Sans" font-size="7.00">&#45; request_type</text>
<text text-anchor="start" x="348" y="-417.4" font-family="Bitstream-Vera Sans" font-size="7.00">&#45; request_purpose</text>
<text text-anchor="start" x="348" y="-405.4" font-family="Bitstream-Vera Sans" font-size="7.00">&#45; request_poweruser_id</text>
<text text-anchor="start" x="348" y="-393.4" font-family="Bitstream-Vera Sans" font-size="7.00">&#45; remark</text>
<text text-anchor="start" x="348" y="-381.4" font-family="Bitstream-Vera Sans" font-size="7.00">&#45; status</text>
<polygon fill="none" stroke="black" points="344.5,-376 344.5,-524 431.5,-524 431.5,-376 344.5,-376"/>
</g>
<!-- observation_request&#45;&gt;user -->
<g id="edge10" class="edge">
<title>observation_request&#45;&gt;user</title>
<path fill="none" stroke="black" d="M327.89,-372.57C327.59,-372.38 327.3,-372.19 327,-372 269.6,-335.3 234.58,-373.96 178,-336 175.54,-334.35 173.17,-332.53 170.88,-330.57"/>
<polygon fill="black" stroke="black" points="328.14,-372.76 333.53,-382.3 332.17,-375.72 336.2,-378.67 336.2,-378.67 336.2,-378.67 332.17,-375.72 338.86,-375.05 328.14,-372.76 328.14,-372.76"/>
<ellipse fill="none" stroke="black" cx="167.96" cy="-327.84" rx="4" ry="4"/>
<text text-anchor="middle" x="171.04" y="-327.51" font-family="Bitstream-Vera Sans" font-size="7.00">+ id</text>
<text text-anchor="middle" x="321.7" y="-381.07" font-family="Bitstream-Vera Sans" font-size="7.00">+ user_id</text>
</g>
<!-- observation_request&#45;&gt;observatory -->
<g id="edge12" class="edge">
<title>observation_request&#45;&gt;observatory</title>
<path fill="none" stroke="black" d="M366.25,-361.8C358.38,-313.83 355.41,-254.06 374,-204 378.21,-192.65 385.39,-181.96 393.23,-172.65"/>
<polygon fill="black" stroke="black" points="366.29,-362 363.57,-372.62 367.14,-366.92 368,-371.85 368,-371.85 368,-371.85 367.14,-366.92 372.43,-371.08 366.29,-362 366.29,-362"/>
<ellipse fill="none" stroke="black" cx="396.08" cy="-169.43" rx="4" ry="4"/>
<text text-anchor="middle" x="392.74" y="-168.84" font-family="Bitstream-Vera Sans" font-size="7.00">+ id</text>
<text text-anchor="middle" x="327" y="-366.25" font-family="Bitstream-Vera Sans" font-size="7.00">+ request_observatory_id</text>
</g>
<!-- observation_request&#45;&gt;poweruser -->
<g id="edge11" class="edge">
<title>observation_request&#45;&gt;poweruser</title>
<path fill="none" stroke="black" d="M401.19,-362.07C402.39,-354.14 403.6,-346.18 404.77,-338.46"/>
<polygon fill="black" stroke="black" points="401.19,-362.07 395.24,-371.29 400.44,-367.02 399.69,-371.96 399.69,-371.96 399.69,-371.96 400.44,-367.02 404.13,-372.64 401.19,-362.07 401.19,-362.07"/>
<ellipse fill="none" stroke="black" cx="405.42" cy="-334.13" rx="4" ry="4"/>
<text text-anchor="middle" x="400.02" y="-332.58" font-family="Bitstream-Vera Sans" font-size="7.00">+ id</text>
<text text-anchor="middle" x="438.19" y="-366.36" font-family="Bitstream-Vera Sans" font-size="7.00">+ request_poweruser_id</text>
</g>
<!-- observation_request_position -->
<g id="node14" class="node">
<title>observation_request_position</title>
<text text-anchor="start" x="459" y="-767.4" font-family="Bitstream-Vera Sans" font-size="7.00">observation_request_position</text>
<polygon fill="none" stroke="black" points="457,-761 457,-763 558,-763 558,-761 457,-761"/>
<text text-anchor="start" x="459" y="-753.4" font-family="Bitstream-Vera Sans" font-size="7.00">&#45; id</text>
<text text-anchor="start" x="459" y="-741.4" font-family="Bitstream-Vera Sans" font-size="7.00">&#45; observation_request_id</text>
<text text-anchor="start" x="459" y="-729.4" font-family="Bitstream-Vera Sans" font-size="7.00">&#45; row_no</text>
<text text-anchor="start" x="459" y="-717.4" font-family="Bitstream-Vera Sans" font-size="7.00">&#45; telescope_id</text>
<text text-anchor="start" x="459" y="-705.4" font-family="Bitstream-Vera Sans" font-size="7.00">&#45; filterset_id</text>
<text text-anchor="start" x="459" y="-693.4" font-family="Bitstream-Vera Sans" font-size="7.00">&#45; target_objecttype</text>
<text text-anchor="start" x="459" y="-681.4" font-family="Bitstream-Vera Sans" font-size="7.00">&#45; target</text>
<text text-anchor="start" x="459" y="-669.4" font-family="Bitstream-Vera Sans" font-size="7.00">&#45; target_coordinates</text>
<text text-anchor="start" x="459" y="-657.4" font-family="Bitstream-Vera Sans" font-size="7.00">&#45; target_coordinates_lock</text>
<text text-anchor="start" x="459" y="-645.4" font-family="Bitstream-Vera Sans" font-size="7.00">&#45; exposure_count</text>
<text text-anchor="start" x="459" y="-633.4" font-family="Bitstream-Vera Sans" font-size="7.00">&#45; exposure_time</text>
<text text-anchor="start" x="459" y="-621.4" font-family="Bitstream-Vera Sans" font-size="7.00">&#45; exposure_gain</text>
<text text-anchor="start" x="459" y="-609.4" font-family="Bitstream-Vera Sans" font-size="7.00">&#45; exposure_offset</text>
<text text-anchor="start" x="459" y="-597.4" font-family="Bitstream-Vera Sans" font-size="7.00">&#45; exposure_dither</text>
<text text-anchor="start" x="459" y="-585.4" font-family="Bitstream-Vera Sans" font-size="7.00">&#45; exposure_focus</text>
<text text-anchor="start" x="459" y="-573.4" font-family="Bitstream-Vera Sans" font-size="7.00">&#45; exposure_starttime</text>
<polygon fill="none" stroke="black" points="455.5,-568 455.5,-776 558.5,-776 558.5,-568 455.5,-568"/>
</g>
<!-- observation_request_position&#45;&gt;telescope -->
<g id="edge13" class="edge">
<title>observation_request_position&#45;&gt;telescope</title>
<path fill="none" stroke="black" d="M536.32,-553.58C537.79,-544.96 539.05,-536.37 540,-528 547.85,-459.11 551.21,-440.42 540,-372 537.85,-358.85 534.21,-345.1 530.1,-332.13"/>
<polygon fill="black" stroke="black" points="536.27,-553.86 530.08,-562.91 535.39,-558.78 534.51,-563.7 534.51,-563.7 534.51,-563.7 535.39,-558.78 538.94,-564.49 536.27,-553.86 536.27,-553.86"/>
<ellipse fill="none" stroke="black" cx="528.73" cy="-327.97" rx="4" ry="4"/>
<text text-anchor="middle" x="521.49" y="-326.57" font-family="Bitstream-Vera Sans" font-size="7.00">+ id</text>
<text text-anchor="middle" x="512.01" y="-558.1" font-family="Bitstream-Vera Sans" font-size="7.00">+ telescope_id</text>
</g>
<!-- observation_request_position&#45;&gt;filterset -->
<g id="edge14" class="edge">
<title>observation_request_position&#45;&gt;filterset</title>
<path fill="none" stroke="black" d="M502.2,-553.74C501.34,-532.64 500.49,-511.91 499.79,-494.65"/>
<polygon fill="black" stroke="black" points="502.21,-553.91 498.12,-564.08 502.41,-558.9 502.62,-563.9 502.62,-563.9 502.62,-563.9 502.41,-558.9 507.11,-563.72 502.21,-553.91 502.21,-553.91"/>
<ellipse fill="none" stroke="black" cx="499.61" cy="-490.47" rx="4" ry="4"/>
<text text-anchor="middle" x="493.45" y="-488.87" font-family="Bitstream-Vera Sans" font-size="7.00">+ id</text>
<text text-anchor="middle" x="483.12" y="-558.3" font-family="Bitstream-Vera Sans" font-size="7.00">+ filterset_id</text>
</g>
<!-- observation_request_position&#45;&gt;observation_request -->
<g id="edge15" class="edge">
<title>observation_request_position&#45;&gt;observation_request</title>
<path fill="none" stroke="black" d="M444.19,-554.89C440.69,-548.41 437.21,-541.97 433.78,-535.64"/>
<polygon fill="black" stroke="black" points="444.31,-555.1 445.11,-566.04 446.69,-559.5 449.07,-563.9 449.07,-563.9 449.07,-563.9 446.69,-559.5 453.03,-561.76 444.31,-555.1 444.31,-555.1"/>
<ellipse fill="none" stroke="black" cx="431.7" cy="-531.79" rx="4" ry="4"/>
<text text-anchor="middle" x="423.8" y="-530.67" font-family="Bitstream-Vera Sans" font-size="7.00">+ id</text>
<text text-anchor="middle" x="408.07" y="-558.3" font-family="Bitstream-Vera Sans" font-size="7.00">+ observation_request_id</text>
</g>
<!-- ObservationHistory -->
<g id="node15" class="node">
<title>ObservationHistory</title>
<text text-anchor="start" x="611" y="-737.4" font-family="Bitstream-Vera Sans" font-size="7.00">ObservationHistory</text>
<polygon fill="none" stroke="black" points="594,-731 594,-733 692,-733 692,-731 594,-731"/>
<text text-anchor="start" x="596" y="-723.4" font-family="Bitstream-Vera Sans" font-size="7.00">&#45; id</text>
<text text-anchor="start" x="596" y="-711.4" font-family="Bitstream-Vera Sans" font-size="7.00">&#45; Datum</text>
<text text-anchor="start" x="596" y="-699.4" font-family="Bitstream-Vera Sans" font-size="7.00">&#45; Objekt</text>
<text text-anchor="start" x="596" y="-687.4" font-family="Bitstream-Vera Sans" font-size="7.00">&#45; Rubrik</text>
<text text-anchor="start" x="596" y="-675.4" font-family="Bitstream-Vera Sans" font-size="7.00">&#45; Teleskop</text>
<text text-anchor="start" x="596" y="-663.4" font-family="Bitstream-Vera Sans" font-size="7.00">&#45; EinzelbelichtungSekunden</text>
<text text-anchor="start" x="596" y="-651.4" font-family="Bitstream-Vera Sans" font-size="7.00">&#45; Bildanzahl</text>
<text text-anchor="start" x="596" y="-639.4" font-family="Bitstream-Vera Sans" font-size="7.00">&#45; Filter</text>
<text text-anchor="start" x="596" y="-627.4" font-family="Bitstream-Vera Sans" font-size="7.00">&#45; Bildersteller</text>
<text text-anchor="start" x="596" y="-615.4" font-family="Bitstream-Vera Sans" font-size="7.00">&#45; Observer</text>
<text text-anchor="start" x="596" y="-603.4" font-family="Bitstream-Vera Sans" font-size="7.00">&#45; NeuentdeckteKleinplaneten</text>
<polygon fill="none" stroke="black" points="593,-598 593,-746 693,-746 693,-598 593,-598"/>
</g>
<!-- system_parameters -->
<g id="node16" class="node">
<title>system_parameters</title>
<text text-anchor="start" x="730" y="-689.4" font-family="Bitstream-Vera Sans" font-size="7.00">system_parameters</text>
<polygon fill="none" stroke="black" points="728,-683 728,-685 796,-685 796,-683 728,-683"/>
<text text-anchor="start" x="730" y="-675.4" font-family="Bitstream-Vera Sans" font-size="7.00">&#45; id</text>
<text text-anchor="start" x="730" y="-663.4" font-family="Bitstream-Vera Sans" font-size="7.00">&#45; parameter</text>
<text text-anchor="start" x="730" y="-651.4" font-family="Bitstream-Vera Sans" font-size="7.00">&#45; value</text>
<polygon fill="none" stroke="black" points="727,-646 727,-698 797,-698 797,-646 727,-646"/>
</g>
<!-- system_parameters_history -->
<g id="node17" class="node">
<title>system_parameters_history</title>
<text text-anchor="start" x="835" y="-701.4" font-family="Bitstream-Vera Sans" font-size="7.00">system_parameters_history</text>
<polygon fill="none" stroke="black" points="833,-695 833,-697 926,-697 926,-695 833,-695"/>
<text text-anchor="start" x="835" y="-687.4" font-family="Bitstream-Vera Sans" font-size="7.00">&#45; id</text>
<text text-anchor="start" x="835" y="-675.4" font-family="Bitstream-Vera Sans" font-size="7.00">&#45; parameter</text>
<text text-anchor="start" x="835" y="-663.4" font-family="Bitstream-Vera Sans" font-size="7.00">&#45; value</text>
<text text-anchor="start" x="835" y="-651.4" font-family="Bitstream-Vera Sans" font-size="7.00">&#45; history_reason</text>
<text text-anchor="start" x="835" y="-639.4" font-family="Bitstream-Vera Sans" font-size="7.00">&#45; history_timestamp</text>
<polygon fill="none" stroke="black" points="831.5,-634 831.5,-710 926.5,-710 926.5,-634 831.5,-634"/>
</g>
<!-- motivation_types -->
<g id="node18" class="node">
<title>motivation_types</title>
<text text-anchor="start" x="964" y="-683.4" font-family="Bitstream-Vera Sans" font-size="7.00">motivation_types</text>
<polygon fill="none" stroke="black" points="962,-677 962,-679 1022,-679 1022,-677 962,-677"/>
<text text-anchor="start" x="964" y="-669.4" font-family="Bitstream-Vera Sans" font-size="7.00">&#45; id</text>
<text text-anchor="start" x="964" y="-657.4" font-family="Bitstream-Vera Sans" font-size="7.00">&#45; Motivation</text>
<polygon fill="none" stroke="black" points="961,-652 961,-692 1023,-692 1023,-652 961,-652"/>
</g>
<!-- object_types -->
<g id="node19" class="node">
<title>object_types</title>
<text text-anchor="start" x="1060" y="-683.4" font-family="Bitstream-Vera Sans" font-size="7.00">object_types</text>
<polygon fill="none" stroke="black" points="1058,-677 1058,-679 1102,-679 1102,-677 1058,-677"/>
<text text-anchor="start" x="1060" y="-669.4" font-family="Bitstream-Vera Sans" font-size="7.00">&#45; id</text>
<text text-anchor="start" x="1060" y="-657.4" font-family="Bitstream-Vera Sans" font-size="7.00">&#45; Objecttype</text>
<polygon fill="none" stroke="black" points="1057,-652 1057,-692 1103,-692 1103,-652 1057,-652"/>
</g>
<!-- observation_request_log -->
<g id="node20" class="node">
<title>observation_request_log</title>
<text text-anchor="start" x="338" y="-707.4" font-family="Bitstream-Vera Sans" font-size="7.00">observation_request_log</text>
<polygon fill="none" stroke="black" points="336,-701 336,-703 421,-703 421,-701 336,-701"/>
<text text-anchor="start" x="338" y="-693.4" font-family="Bitstream-Vera Sans" font-size="7.00">&#45; id</text>
<text text-anchor="start" x="338" y="-681.4" font-family="Bitstream-Vera Sans" font-size="7.00">&#45; order_id</text>
<text text-anchor="start" x="338" y="-669.4" font-family="Bitstream-Vera Sans" font-size="7.00">&#45; timestamp</text>
<text text-anchor="start" x="338" y="-657.4" font-family="Bitstream-Vera Sans" font-size="7.00">&#45; type</text>
<text text-anchor="start" x="338" y="-645.4" font-family="Bitstream-Vera Sans" font-size="7.00">&#45; subtype</text>
<text text-anchor="start" x="338" y="-633.4" font-family="Bitstream-Vera Sans" font-size="7.00">&#45; text</text>
<polygon fill="none" stroke="black" points="334.5,-628 334.5,-716 421.5,-716 421.5,-628 334.5,-628"/>
</g>
<!-- observation_request_log&#45;&gt;observation_request -->
<g id="edge16" class="edge">
<title>observation_request_log&#45;&gt;observation_request</title>
<path fill="none" stroke="black" d="M380.6,-613.73C381.67,-590.23 382.93,-562.53 384.1,-536.71"/>
<polygon fill="black" stroke="black" points="380.6,-613.81 375.65,-623.6 380.37,-618.81 380.15,-623.8 380.15,-623.8 380.15,-623.8 380.37,-618.81 384.64,-624.01 380.6,-613.81 380.6,-613.81"/>
<ellipse fill="none" stroke="black" cx="384.3" cy="-532.4" rx="4" ry="4"/>
<text text-anchor="middle" x="378.48" y="-530.8" font-family="Bitstream-Vera Sans" font-size="7.00">+ id</text>
<text text-anchor="middle" x="363.15" y="-618.2" font-family="Bitstream-Vera Sans" font-size="7.00">+ order_id</text>
</g>
<!-- catalogue_meta -->
<g id="node21" class="node">
<title>catalogue_meta</title>
<text text-anchor="start" x="1146" y="-509.4" font-family="Bitstream-Vera Sans" font-size="7.00">catalogue_meta</text>
<polygon fill="none" stroke="black" points="1144,-503 1144,-505 1200,-505 1200,-503 1144,-503"/>
<text text-anchor="start" x="1146" y="-495.4" font-family="Bitstream-Vera Sans" font-size="7.00">&#45; id</text>
<text text-anchor="start" x="1146" y="-483.4" font-family="Bitstream-Vera Sans" font-size="7.00">&#45; name</text>
<text text-anchor="start" x="1146" y="-471.4" font-family="Bitstream-Vera Sans" font-size="7.00">&#45; author</text>
<text text-anchor="start" x="1146" y="-459.4" font-family="Bitstream-Vera Sans" font-size="7.00">&#45; source</text>
<text text-anchor="start" x="1146" y="-447.4" font-family="Bitstream-Vera Sans" font-size="7.00">&#45; description</text>
<text text-anchor="start" x="1146" y="-435.4" font-family="Bitstream-Vera Sans" font-size="7.00">&#45; version</text>
<text text-anchor="start" x="1146" y="-423.4" font-family="Bitstream-Vera Sans" font-size="7.00">&#45; license</text>
<text text-anchor="start" x="1146" y="-411.4" font-family="Bitstream-Vera Sans" font-size="7.00">&#45; maintainer</text>
<text text-anchor="start" x="1146" y="-399.4" font-family="Bitstream-Vera Sans" font-size="7.00">&#45; equinoxes</text>
<text text-anchor="start" x="1146" y="-387.4" font-family="Bitstream-Vera Sans" font-size="7.00">&#45; timestamp</text>
<polygon fill="none" stroke="black" points="1143,-382 1143,-518 1201,-518 1201,-382 1143,-382"/>
</g>
<!-- catalogue -->
<g id="node22" class="node">
<title>catalogue</title>
<text text-anchor="start" x="1156" y="-713.4" font-family="Bitstream-Vera Sans" font-size="7.00">catalogue</text>
<polygon fill="none" stroke="black" points="1138,-707 1138,-709 1206,-709 1206,-707 1138,-707"/>
<text text-anchor="start" x="1140" y="-699.4" font-family="Bitstream-Vera Sans" font-size="7.00">&#45; id</text>
<text text-anchor="start" x="1140" y="-687.4" font-family="Bitstream-Vera Sans" font-size="7.00">&#45; catalogue_meta_id</text>
<text text-anchor="start" x="1140" y="-675.4" font-family="Bitstream-Vera Sans" font-size="7.00">&#45; name</text>
<text text-anchor="start" x="1140" y="-663.4" font-family="Bitstream-Vera Sans" font-size="7.00">&#45; long_name</text>
<text text-anchor="start" x="1140" y="-651.4" font-family="Bitstream-Vera Sans" font-size="7.00">&#45; type</text>
<text text-anchor="start" x="1140" y="-639.4" font-family="Bitstream-Vera Sans" font-size="7.00">&#45; ra</text>
<text text-anchor="start" x="1140" y="-627.4" font-family="Bitstream-Vera Sans" font-size="7.00">&#45; dec</text>
<polygon fill="none" stroke="black" points="1137,-622 1137,-722 1207,-722 1207,-622 1137,-622"/>
</g>
<!-- catalogue&#45;&gt;catalogue_meta -->
<g id="edge17" class="edge">
<title>catalogue&#45;&gt;catalogue_meta</title>
<path fill="none" stroke="black" d="M1172,-607.72C1172,-583.56 1172,-555.7 1172,-530.23"/>
<polygon fill="black" stroke="black" points="1172,-607.74 1167.5,-617.74 1172,-612.74 1172,-617.74 1172,-617.74 1172,-617.74 1172,-612.74 1176.5,-617.74 1172,-607.74 1172,-607.74"/>
<ellipse fill="none" stroke="black" cx="1172" cy="-526.06" rx="4" ry="4"/>
<text text-anchor="middle" x="1166" y="-524.46" font-family="Bitstream-Vera Sans" font-size="7.00">+ id</text>
<text text-anchor="middle" x="1139" y="-612.14" font-family="Bitstream-Vera Sans" font-size="7.00">+ catalogue_meta_id</text>
</g>
<!-- alembic_version -->
<g id="node23" class="node">
<title>alembic_version</title>
<text text-anchor="start" x="1244" y="-677.4" font-family="Bitstream-Vera Sans" font-size="7.00">alembic_version</text>
<polygon fill="none" stroke="black" points="1242,-671 1242,-673 1298,-673 1298,-671 1242,-671"/>
<text text-anchor="start" x="1244" y="-663.4" font-family="Bitstream-Vera Sans" font-size="7.00">&#45; version_num</text>
<polygon fill="none" stroke="black" points="1241,-658 1241,-686 1299,-686 1299,-658 1241,-658"/>
</g>
</g>
</svg>
