<?xml version="1.0" encoding="UTF-8" standalone="no"?>
<!DOCTYPE svg PUBLIC "-//W3C//DTD SVG 1.1//EN"
 "http://www.w3.org/Graphics/SVG/1.1/DTD/svg11.dtd">
<!-- Generated by graphviz version 2.43.0 (0)
 -->
<!-- Title: G Pages: 1 -->
<svg width="343pt" height="212pt"
 viewBox="0.00 0.00 343.00 212.00" xmlns="http://www.w3.org/2000/svg" xmlns:xlink="http://www.w3.org/1999/xlink">
<g id="graph0" class="graph" transform="scale(1 1) rotate(0) translate(4 208)">
<title>G</title>
<polygon fill="white" stroke="transparent" points="-4,4 -4,-208 339,-208 339,4 -4,4"/>
<!-- user -->
<g id="node1" class="node">
<title>user</title>
<text text-anchor="start" x="29.5" y="-71.4" font-family="Bitstream-Vera Sans" font-size="7.00">user</text>
<polygon fill="none" stroke="black" points="14,-65 14,-67 61,-67 61,-65 14,-65"/>
<text text-anchor="start" x="16" y="-57.4" font-family="Bitstream-Vera Sans" font-size="7.00">&#45; id</text>
<text text-anchor="start" x="16" y="-45.4" font-family="Bitstream-Vera Sans" font-size="7.00">&#45; username</text>
<text text-anchor="start" x="16" y="-33.4" font-family="Bitstream-Vera Sans" font-size="7.00">&#45; email</text>
<text text-anchor="start" x="16" y="-21.4" font-family="Bitstream-Vera Sans" font-size="7.00">&#45; image_file</text>
<text text-anchor="start" x="16" y="-9.4" font-family="Bitstream-Vera Sans" font-size="7.00">&#45; password</text>
<polygon fill="none" stroke="black" points="12.5,-4 12.5,-80 61.5,-80 61.5,-4 12.5,-4"/>
</g>
<!-- group -->
<g id="node2" class="node">
<title>group</title>
<text text-anchor="start" x="111" y="-53.4" font-family="Bitstream-Vera Sans" font-size="7.00">group</text>
<polygon fill="none" stroke="black" points="97,-47 97,-49 147,-49 147,-47 97,-47"/>
<text text-anchor="start" x="99" y="-39.4" font-family="Bitstream-Vera Sans" font-size="7.00">&#45; id</text>
<text text-anchor="start" x="99" y="-27.4" font-family="Bitstream-Vera Sans" font-size="7.00">&#45; groupname</text>
<polygon fill="none" stroke="black" points="96,-22 96,-62 148,-62 148,-22 96,-22"/>
</g>
<!-- user_group -->
<g id="node3" class="node">
<title>user_group</title>
<text text-anchor="start" x="102" y="-173.4" font-family="Bitstream-Vera Sans" font-size="7.00">user_group</text>
<polygon fill="none" stroke="black" points="100,-167 100,-169 145,-169 145,-167 100,-167"/>
<text text-anchor="start" x="102" y="-159.4" font-family="Bitstream-Vera Sans" font-size="7.00">&#45; user_id</text>
<text text-anchor="start" x="102" y="-147.4" font-family="Bitstream-Vera Sans" font-size="7.00">&#45; group_id</text>
<polygon fill="none" stroke="black" points="98.5,-142 98.5,-182 145.5,-182 145.5,-142 98.5,-142"/>
</g>
<!-- user_group&#45;&gt;user -->
<g id="edge1" class="edge">
<title>user_group&#45;&gt;user</title>
<path fill="none" stroke="black" d="M99.42,-129.66C90.86,-117.77 80.9,-103.95 71.49,-90.88"/>
<polygon fill="black" stroke="black" points="99.56,-129.85 101.76,-140.6 102.49,-133.91 105.41,-137.97 105.41,-137.97 105.41,-137.97 102.49,-133.91 109.06,-135.34 99.56,-129.85 99.56,-129.85"/>
<ellipse fill="none" stroke="black" cx="68.96" cy="-87.37" rx="4" ry="4"/>
<text text-anchor="middle" x="58.63" y="-86.53" font-family="Bitstream-Vera Sans" font-size="7.00">+ id</text>
<text text-anchor="middle" x="122.91" y="-132.37" font-family="Bitstream-Vera Sans" font-size="7.00">+ user_id</text>
</g>
<!-- user_group&#45;&gt;group -->
<g id="edge2" class="edge">
<title>user_group&#45;&gt;group</title>
<path fill="none" stroke="black" d="M122,-127.93C122,-111.24 122,-91.1 122,-74.62"/>
<polygon fill="black" stroke="black" points="122,-127.97 117.5,-137.97 122,-132.97 122,-137.97 122,-137.97 122,-137.97 122,-132.97 126.5,-137.97 122,-127.97 122,-127.97"/>
<ellipse fill="none" stroke="black" cx="122" cy="-70.38" rx="4" ry="4"/>
<text text-anchor="middle" x="114" y="-68.78" font-family="Bitstream-Vera Sans" font-size="7.00">+ id</text>
<text text-anchor="middle" x="102" y="-132.37" font-family="Bitstream-Vera Sans" font-size="7.00">+ group_id</text>
</g>
<!-- role -->
<g id="node4" class="node">
<title>role</title>
<text text-anchor="start" x="197.5" y="-53.4" font-family="Bitstream-Vera Sans" font-size="7.00">role</text>
<polygon fill="none" stroke="black" points="183,-47 183,-49 227,-49 227,-47 183,-47"/>
<text text-anchor="start" x="185" y="-39.4" font-family="Bitstream-Vera Sans" font-size="7.00">&#45; id</text>
<text text-anchor="start" x="185" y="-27.4" font-family="Bitstream-Vera Sans" font-size="7.00">&#45; rolename</text>
<polygon fill="none" stroke="black" points="182,-22 182,-62 228,-62 228,-22 182,-22"/>
</g>
<!-- role_group -->
<g id="node5" class="node">
<title>role_group</title>
<text text-anchor="start" x="184" y="-173.4" font-family="Bitstream-Vera Sans" font-size="7.00">role_group</text>
<polygon fill="none" stroke="black" points="182,-167 182,-169 226,-169 226,-167 182,-167"/>
<text text-anchor="start" x="184" y="-159.4" font-family="Bitstream-Vera Sans" font-size="7.00">&#45; role_id</text>
<text text-anchor="start" x="184" y="-147.4" font-family="Bitstream-Vera Sans" font-size="7.00">&#45; group_id</text>
<polygon fill="none" stroke="black" points="181,-142 181,-182 227,-182 227,-142 181,-142"/>
</g>
<!-- role_group&#45;&gt;group -->
<g id="edge3" class="edge">
<title>role_group&#45;&gt;group</title>
<path fill="none" stroke="black" d="M182.14,-129.55C169.96,-112.02 154.87,-90.3 142.85,-73.01"/>
<polygon fill="black" stroke="black" points="182.29,-129.76 184.3,-140.54 185.14,-133.86 187.99,-137.97 187.99,-137.97 187.99,-137.97 185.14,-133.86 191.69,-135.4 182.29,-129.76 182.29,-129.76"/>
<ellipse fill="none" stroke="black" cx="140.53" cy="-69.66" rx="4" ry="4"/>
<text text-anchor="middle" x="130.24" y="-68.78" font-family="Bitstream-Vera Sans" font-size="7.00">+ id</text>
<text text-anchor="middle" x="167.99" y="-132.37" font-family="Bitstream-Vera Sans" font-size="7.00">+ group_id</text>
</g>
<!-- role_group&#45;&gt;role -->
<g id="edge4" class="edge">
<title>role_group&#45;&gt;role</title>
<path fill="none" stroke="black" d="M204.28,-127.93C204.42,-111.24 204.59,-91.1 204.73,-74.62"/>
<polygon fill="black" stroke="black" points="204.28,-127.97 199.7,-137.93 204.24,-132.97 204.2,-137.97 204.2,-137.97 204.2,-137.97 204.24,-132.97 208.7,-138.01 204.28,-127.97 204.28,-127.97"/>
<ellipse fill="none" stroke="black" cx="204.77" cy="-70.38" rx="4" ry="4"/>
<text text-anchor="middle" x="196.8" y="-68.78" font-family="Bitstream-Vera Sans" font-size="7.00">+ id</text>
<text text-anchor="middle" x="221.2" y="-132.37" font-family="Bitstream-Vera Sans" font-size="7.00">+ role_id</text>
</g>
<!-- post -->
<g id="node6" class="node">
<title>post</title>
<text text-anchor="start" x="28" y="-191.4" font-family="Bitstream-Vera Sans" font-size="7.00">post</text>
<polygon fill="none" stroke="black" points="9,-185 9,-187 63,-187 63,-185 9,-185"/>
<text text-anchor="start" x="11" y="-177.4" font-family="Bitstream-Vera Sans" font-size="7.00">&#45; id</text>
<text text-anchor="start" x="11" y="-165.4" font-family="Bitstream-Vera Sans" font-size="7.00">&#45; title</text>
<text text-anchor="start" x="11" y="-153.4" font-family="Bitstream-Vera Sans" font-size="7.00">&#45; date_posted</text>
<text text-anchor="start" x="11" y="-141.4" font-family="Bitstream-Vera Sans" font-size="7.00">&#45; content</text>
<text text-anchor="start" x="11" y="-129.4" font-family="Bitstream-Vera Sans" font-size="7.00">&#45; user_id</text>
<polygon fill="none" stroke="black" points="8,-124 8,-200 64,-200 64,-124 8,-124"/>
</g>
<!-- post&#45;&gt;user -->
<g id="edge5" class="edge">
<title>post&#45;&gt;user</title>
<path fill="none" stroke="black" d="M36.44,-109.5C36.48,-103.78 36.53,-97.96 36.58,-92.27"/>
<polygon fill="black" stroke="black" points="36.43,-109.73 31.85,-119.69 36.39,-114.73 36.35,-119.73 36.35,-119.73 36.35,-119.73 36.39,-114.73 40.85,-119.77 36.43,-109.73 36.43,-109.73"/>
<ellipse fill="none" stroke="black" cx="36.62" cy="-88.05" rx="4" ry="4"/>
<text text-anchor="middle" x="28.65" y="-86.45" font-family="Bitstream-Vera Sans" font-size="7.00">+ id</text>
<text text-anchor="middle" x="18.85" y="-114.13" font-family="Bitstream-Vera Sans" font-size="7.00">+ user_id</text>
</g>
<!-- alembic_version -->
<g id="node7" class="node">
<title>alembic_version</title>
<text text-anchor="start" x="264" y="-167.4" font-family="Bitstream-Vera Sans" font-size="7.00">alembic_version</text>
<polygon fill="none" stroke="black" points="262,-161 262,-163 326,-163 326,-161 262,-161"/>
<text text-anchor="start" x="264" y="-153.4" font-family="Bitstream-Vera Sans" font-size="7.00">&#45; version_num</text>
<polygon fill="none" stroke="black" points="261,-148 261,-176 327,-176 327,-148 261,-148"/>
</g>
</g>
</svg>
