<?xml version="1.0" encoding="UTF-8" standalone="no"?>
<!DOCTYPE svg PUBLIC "-//W3C//DTD SVG 1.1//EN"
 "http://www.w3.org/Graphics/SVG/1.1/DTD/svg11.dtd">
<!-- Generated by graphviz version 2.43.0 (0)
 -->
<!-- Title: G Pages: 1 -->
<svg width="1447pt" height="1087pt"
 viewBox="0.00 0.00 1447.00 1087.25" xmlns="http://www.w3.org/2000/svg" xmlns:xlink="http://www.w3.org/1999/xlink">
<g id="graph0" class="graph" transform="scale(1 1) rotate(0) translate(4 1083.25)">
<title>G</title>
<polygon fill="white" stroke="transparent" points="-4,4 -4,-1083.25 1443,-1083.25 1443,4 -4,4"/>
<!-- Catalogue -->
<g id="node1" class="node">
<title>Catalogue</title>
<polygon fill="none" stroke="black" points="8,-1025 8,-1040 124,-1040 124,-1025 8,-1025"/>
<text text-anchor="start" x="42.5" y="-1030" font-family="Bitstream-Vera Sans" font-size="10.00">Catalogue</text>
<polygon fill="none" stroke="black" points="8,-958 8,-1025 124,-1025 124,-958 8,-958"/>
<text text-anchor="start" x="10" y="-1016.6" font-family="Bitstream-Vera Sans" font-size="8.00">+id : Integer</text>
<text text-anchor="start" x="10" y="-1007.6" font-family="Bitstream-Vera Sans" font-size="8.00">+catalogue_meta_id : Integer</text>
<text text-anchor="start" x="10" y="-998.6" font-family="Bitstream-Vera Sans" font-size="8.00">+name : String</text>
<text text-anchor="start" x="10" y="-989.6" font-family="Bitstream-Vera Sans" font-size="8.00">+long_name : String</text>
<text text-anchor="start" x="10" y="-980.6" font-family="Bitstream-Vera Sans" font-size="8.00">+type : Integer</text>
<text text-anchor="start" x="10" y="-971.6" font-family="Bitstream-Vera Sans" font-size="8.00">+ra : Float</text>
<text text-anchor="start" x="44" y="-962.6" font-family="Bitstream-Vera Sans" font-size="8.00">+dec : Float</text>
</g>
<!-- CatalogueMeta -->
<g id="node2" class="node">
<title>CatalogueMeta</title>
<polygon fill="none" stroke="black" points="158,-1038 158,-1053 252,-1053 252,-1038 158,-1038"/>
<text text-anchor="start" x="169.5" y="-1043" font-family="Bitstream-Vera Sans" font-size="10.00">CatalogueMeta</text>
<polygon fill="none" stroke="black" points="158,-944 158,-1038 252,-1038 252,-944 158,-944"/>
<text text-anchor="start" x="160" y="-1029.6" font-family="Bitstream-Vera Sans" font-size="8.00">+id : Integer</text>
<text text-anchor="start" x="160" y="-1020.6" font-family="Bitstream-Vera Sans" font-size="8.00">+name : String</text>
<text text-anchor="start" x="160" y="-1011.6" font-family="Bitstream-Vera Sans" font-size="8.00">+author : String</text>
<text text-anchor="start" x="160" y="-1002.6" font-family="Bitstream-Vera Sans" font-size="8.00">+source : String</text>
<text text-anchor="start" x="160" y="-993.6" font-family="Bitstream-Vera Sans" font-size="8.00">+description : String</text>
<text text-anchor="start" x="160" y="-984.6" font-family="Bitstream-Vera Sans" font-size="8.00">+version : Integer</text>
<text text-anchor="start" x="160" y="-975.6" font-family="Bitstream-Vera Sans" font-size="8.00">+license : String</text>
<text text-anchor="start" x="160" y="-966.6" font-family="Bitstream-Vera Sans" font-size="8.00">+maintainer : String</text>
<text text-anchor="start" x="160" y="-957.6" font-family="Bitstream-Vera Sans" font-size="8.00">+equinoxes : String</text>
<text text-anchor="start" x="160" y="-948.6" font-family="Bitstream-Vera Sans" font-size="8.00">+timestamp : DateTime</text>
</g>
<!-- Filterset -->
<g id="node3" class="node">
<title>Filterset</title>
<polygon fill="none" stroke="black" points="286,-1011 286,-1026 378,-1026 378,-1011 286,-1011"/>
<text text-anchor="start" x="312.5" y="-1016" font-family="Bitstream-Vera Sans" font-size="10.00">Filterset</text>
<polygon fill="none" stroke="black" points="286,-971 286,-1011 378,-1011 378,-971 286,-971"/>
<text text-anchor="start" x="288" y="-1002.6" font-family="Bitstream-Vera Sans" font-size="8.00">+id : Integer</text>
<text text-anchor="start" x="288" y="-993.6" font-family="Bitstream-Vera Sans" font-size="8.00">+name : String</text>
<text text-anchor="start" x="288" y="-984.6" font-family="Bitstream-Vera Sans" font-size="8.00">+telescope_id : Integer</text>
<text text-anchor="start" x="295.5" y="-975.6" font-family="Bitstream-Vera Sans" font-size="8.00">+quantity : Integer</text>
</g>
<!-- ObservationRequestPosition -->
<g id="node10" class="node">
<title>ObservationRequestPosition</title>
<polygon fill="none" stroke="black" points="211,-830 211,-845 348,-845 348,-830 211,-830"/>
<text text-anchor="start" x="213" y="-835" font-family="Bitstream-Vera Sans" font-size="10.00">ObservationRequestPosition</text>
<polygon fill="none" stroke="black" points="211,-682 211,-830 348,-830 348,-682 211,-682"/>
<text text-anchor="start" x="213" y="-821.6" font-family="Bitstream-Vera Sans" font-size="8.00">+id : Integer</text>
<text text-anchor="start" x="213" y="-812.6" font-family="Bitstream-Vera Sans" font-size="8.00">+observation_request_id : Integer</text>
<text text-anchor="start" x="213" y="-803.6" font-family="Bitstream-Vera Sans" font-size="8.00">+row_no : Integer</text>
<text text-anchor="start" x="213" y="-794.6" font-family="Bitstream-Vera Sans" font-size="8.00">+telescope_id : Integer</text>
<text text-anchor="start" x="213" y="-785.6" font-family="Bitstream-Vera Sans" font-size="8.00">+filterset_id : Integer</text>
<text text-anchor="start" x="213" y="-776.6" font-family="Bitstream-Vera Sans" font-size="8.00">+target_objecttype : String</text>
<text text-anchor="start" x="213" y="-767.6" font-family="Bitstream-Vera Sans" font-size="8.00">+target : String</text>
<text text-anchor="start" x="213" y="-758.6" font-family="Bitstream-Vera Sans" font-size="8.00">+target_coordinates : String</text>
<text text-anchor="start" x="213" y="-749.6" font-family="Bitstream-Vera Sans" font-size="8.00">+target_coordinates_lock : String</text>
<text text-anchor="start" x="213" y="-740.6" font-family="Bitstream-Vera Sans" font-size="8.00">+exposure_count : Integer</text>
<text text-anchor="start" x="213" y="-731.6" font-family="Bitstream-Vera Sans" font-size="8.00">+exposure_time : Integer</text>
<text text-anchor="start" x="213" y="-722.6" font-family="Bitstream-Vera Sans" font-size="8.00">+exposure_gain : Integer</text>
<text text-anchor="start" x="213" y="-713.6" font-family="Bitstream-Vera Sans" font-size="8.00">+exposure_offset : Integer</text>
<text text-anchor="start" x="213" y="-704.6" font-family="Bitstream-Vera Sans" font-size="8.00">+exposure_dither : Integer</text>
<text text-anchor="start" x="213" y="-695.6" font-family="Bitstream-Vera Sans" font-size="8.00">+exposure_focus : Integer</text>
<text text-anchor="start" x="225.5" y="-686.6" font-family="Bitstream-Vera Sans" font-size="8.00">+exposure_starttime : Time</text>
</g>
<!-- Filterset&#45;&gt;ObservationRequestPosition -->
<g id="edge17" class="edge">
<title>Filterset&#45;&gt;ObservationRequestPosition</title>
<path fill="none" stroke="black" d="M320.2,-967.06C312.33,-939.62 302.25,-898.06 293.91,-859.75"/>
<polygon fill="black" stroke="black" points="291.72,-849.57 298.22,-858.4 292.77,-854.46 293.82,-859.35 293.82,-859.35 293.82,-859.35 292.77,-854.46 289.42,-860.29 291.72,-849.57 291.72,-849.57"/>
<text text-anchor="middle" x="238.72" y="-851.97" font-family="Bitstream-Vera Sans" font-size="7.00">+observation_request_position *</text>
</g>
<!-- Telescope -->
<g id="node18" class="node">
<title>Telescope</title>
<polygon fill="none" stroke="black" points="334,-577 334,-592 435,-592 435,-577 334,-577"/>
<text text-anchor="start" x="361.5" y="-582" font-family="Bitstream-Vera Sans" font-size="10.00">Telescope</text>
<polygon fill="none" stroke="black" points="334,-510 334,-577 435,-577 435,-510 334,-510"/>
<text text-anchor="start" x="336" y="-568.6" font-family="Bitstream-Vera Sans" font-size="8.00">+id : Integer</text>
<text text-anchor="start" x="336" y="-559.6" font-family="Bitstream-Vera Sans" font-size="8.00">+name : String</text>
<text text-anchor="start" x="336" y="-550.6" font-family="Bitstream-Vera Sans" font-size="8.00">+observatory_id : Integer</text>
<text text-anchor="start" x="336" y="-541.6" font-family="Bitstream-Vera Sans" font-size="8.00">+aperature_mm : Float</text>
<text text-anchor="start" x="336" y="-532.6" font-family="Bitstream-Vera Sans" font-size="8.00">+focal_length_mm : Float</text>
<text text-anchor="start" x="336" y="-523.6" font-family="Bitstream-Vera Sans" font-size="8.00">+camera_name : String</text>
<text text-anchor="start" x="355.5" y="-514.6" font-family="Bitstream-Vera Sans" font-size="8.00">+status : String</text>
</g>
<!-- Filterset&#45;&gt;Telescope -->
<g id="edge14" class="edge">
<title>Filterset&#45;&gt;Telescope</title>
<path fill="none" stroke="black" d="M333.09,-967.23C338.44,-937.36 349.22,-890.63 355,-849.5 366.89,-764.94 371.76,-665.83 376.13,-606.03"/>
<polygon fill="black" stroke="black" points="376.88,-596.06 380.62,-606.37 376.51,-601.05 376.13,-606.03 376.13,-606.03 376.13,-606.03 376.51,-601.05 371.64,-605.69 376.88,-596.06 376.88,-596.06"/>
<text text-anchor="middle" x="352.88" y="-598.46" font-family="Bitstream-Vera Sans" font-size="7.00">+telescope 0..1</text>
</g>
<!-- Group -->
<g id="node4" class="node">
<title>Group</title>
<polygon fill="none" stroke="black" points="522,-1002 522,-1017 583,-1017 583,-1002 522,-1002"/>
<text text-anchor="start" x="537.5" y="-1007" font-family="Bitstream-Vera Sans" font-size="10.00">Group</text>
<polygon fill="none" stroke="black" points="522,-980 522,-1002 583,-1002 583,-980 522,-980"/>
<text text-anchor="start" x="524" y="-993.6" font-family="Bitstream-Vera Sans" font-size="8.00">+id : Integer</text>
<text text-anchor="start" x="524" y="-984.6" font-family="Bitstream-Vera Sans" font-size="8.00">+name : String</text>
</g>
<!-- Role -->
<g id="node14" class="node">
<title>Role</title>
<polygon fill="none" stroke="black" points="467,-767 467,-782 528,-782 528,-767 467,-767"/>
<text text-anchor="start" x="487" y="-772" font-family="Bitstream-Vera Sans" font-size="10.00">Role</text>
<polygon fill="none" stroke="black" points="467,-745 467,-767 528,-767 528,-745 467,-745"/>
<text text-anchor="start" x="469" y="-758.6" font-family="Bitstream-Vera Sans" font-size="8.00">+id : Integer</text>
<text text-anchor="start" x="469" y="-749.6" font-family="Bitstream-Vera Sans" font-size="8.00">+name : String</text>
</g>
<!-- Group&#45;&gt;Role -->
<g id="edge16" class="edge">
<title>Group&#45;&gt;Role</title>
<path fill="none" stroke="black" d="M542.81,-976.5C529.81,-935.25 508.23,-844.84 499.67,-796.67"/>
<polygon fill="black" stroke="black" points="498.01,-786.79 504.11,-795.9 498.84,-791.72 499.67,-796.65 499.67,-796.65 499.67,-796.65 498.84,-791.72 495.23,-797.4 498.01,-786.79 498.01,-786.79"/>
<text text-anchor="middle" x="485.51" y="-789.19" font-family="Bitstream-Vera Sans" font-size="7.00">+roles *</text>
</g>
<!-- User -->
<g id="node19" class="node">
<title>User</title>
<polygon fill="none" stroke="black" points="562,-799 562,-814 654,-814 654,-799 562,-799"/>
<text text-anchor="start" x="596.5" y="-804" font-family="Bitstream-Vera Sans" font-size="10.00">User</text>
<polygon fill="none" stroke="black" points="562,-714 562,-799 654,-799 654,-714 562,-714"/>
<text text-anchor="start" x="564" y="-790.6" font-family="Bitstream-Vera Sans" font-size="8.00">+id : Integer</text>
<text text-anchor="start" x="564" y="-781.6" font-family="Bitstream-Vera Sans" font-size="8.00">+name : String</text>
<text text-anchor="start" x="564" y="-772.6" font-family="Bitstream-Vera Sans" font-size="8.00">+email : String</text>
<text text-anchor="start" x="564" y="-763.6" font-family="Bitstream-Vera Sans" font-size="8.00">+image_file : String</text>
<text text-anchor="start" x="564" y="-754.6" font-family="Bitstream-Vera Sans" font-size="8.00">+password : String</text>
<text text-anchor="start" x="564" y="-745.6" font-family="Bitstream-Vera Sans" font-size="8.00">+surname : String</text>
<text text-anchor="start" x="564" y="-736.6" font-family="Bitstream-Vera Sans" font-size="8.00">+firstname : String</text>
<text text-anchor="start" x="564" y="-727.6" font-family="Bitstream-Vera Sans" font-size="8.00">+vds_number : Integer</text>
<text text-anchor="start" x="565.5" y="-718.6" font-family="Bitstream-Vera Sans" font-size="8.00">+last_login : DateTime</text>
</g>
<!-- Group&#45;&gt;User -->
<g id="edge2" class="edge">
<title>Group&#45;&gt;User</title>
<path fill="none" stroke="black" d="M553.05,-976.5C558.44,-943.09 573.57,-877.42 586.77,-828.08"/>
<polygon fill="black" stroke="black" points="589.46,-818.13 591.19,-828.96 588.15,-822.95 586.85,-827.78 586.85,-827.78 586.85,-827.78 588.15,-822.95 582.5,-826.6 589.46,-818.13 589.46,-818.13"/>
<text text-anchor="middle" x="575.96" y="-820.53" font-family="Bitstream-Vera Sans" font-size="7.00">+users *</text>
</g>
<!-- MotivationTypes -->
<g id="node5" class="node">
<title>MotivationTypes</title>
<polygon fill="none" stroke="black" points="617,-1002 617,-1017 698,-1017 698,-1002 617,-1002"/>
<text text-anchor="start" x="619" y="-1007" font-family="Bitstream-Vera Sans" font-size="10.00">MotivationTypes</text>
<polygon fill="none" stroke="black" points="617,-980 617,-1002 698,-1002 698,-980 617,-980"/>
<text text-anchor="start" x="619" y="-993.6" font-family="Bitstream-Vera Sans" font-size="8.00">+id : Integer</text>
<text text-anchor="start" x="619" y="-984.6" font-family="Bitstream-Vera Sans" font-size="8.00">+Motivation : String</text>
</g>
<!-- ObjectTypes -->
<g id="node6" class="node">
<title>ObjectTypes</title>
<polygon fill="none" stroke="black" points="732,-1002 732,-1017 812,-1017 812,-1002 732,-1002"/>
<text text-anchor="start" x="743" y="-1007" font-family="Bitstream-Vera Sans" font-size="10.00">ObjectTypes</text>
<polygon fill="none" stroke="black" points="732,-980 732,-1002 812,-1002 812,-980 732,-980"/>
<text text-anchor="start" x="734" y="-993.6" font-family="Bitstream-Vera Sans" font-size="8.00">+id : Integer</text>
<text text-anchor="start" x="734" y="-984.6" font-family="Bitstream-Vera Sans" font-size="8.00">+Objecttype : String</text>
</g>
<!-- ObservationHistory -->
<g id="node7" class="node">
<title>ObservationHistory</title>
<polygon fill="none" stroke="black" points="847,-1043 847,-1058 994,-1058 994,-1043 847,-1043"/>
<text text-anchor="start" x="875" y="-1048" font-family="Bitstream-Vera Sans" font-size="10.00">ObservationHistory</text>
<polygon fill="none" stroke="black" points="847,-940 847,-1043 994,-1043 994,-940 847,-940"/>
<text text-anchor="start" x="849" y="-1034.6" font-family="Bitstream-Vera Sans" font-size="8.00">+id : Integer</text>
<text text-anchor="start" x="849" y="-1025.6" font-family="Bitstream-Vera Sans" font-size="8.00">+Datum : String</text>
<text text-anchor="start" x="849" y="-1016.6" font-family="Bitstream-Vera Sans" font-size="8.00">+Objekt : String</text>
<text text-anchor="start" x="849" y="-1007.6" font-family="Bitstream-Vera Sans" font-size="8.00">+Rubrik : String</text>
<text text-anchor="start" x="849" y="-998.6" font-family="Bitstream-Vera Sans" font-size="8.00">+Teleskop : String</text>
<text text-anchor="start" x="849" y="-989.6" font-family="Bitstream-Vera Sans" font-size="8.00">+EinzelbelichtungSekunden : String</text>
<text text-anchor="start" x="849" y="-980.6" font-family="Bitstream-Vera Sans" font-size="8.00">+Bildanzahl : String</text>
<text text-anchor="start" x="849" y="-971.6" font-family="Bitstream-Vera Sans" font-size="8.00">+Filter : String</text>
<text text-anchor="start" x="849" y="-962.6" font-family="Bitstream-Vera Sans" font-size="8.00">+Bildersteller : String</text>
<text text-anchor="start" x="849" y="-953.6" font-family="Bitstream-Vera Sans" font-size="8.00">+Observer : String</text>
<text text-anchor="start" x="849" y="-944.6" font-family="Bitstream-Vera Sans" font-size="8.00">+NeuentdeckteKleinplaneten : String</text>
</g>
<!-- ObservationRequest -->
<g id="node8" class="node">
<title>ObservationRequest</title>
<polygon fill="none" stroke="black" points="213,-297 213,-312 345,-312 345,-297 213,-297"/>
<text text-anchor="start" x="231" y="-302" font-family="Bitstream-Vera Sans" font-size="10.00">ObservationRequest</text>
<polygon fill="none" stroke="black" points="213,-194 213,-297 345,-297 345,-194 213,-194"/>
<text text-anchor="start" x="215" y="-288.6" font-family="Bitstream-Vera Sans" font-size="8.00">+id : Integer</text>
<text text-anchor="start" x="215" y="-279.6" font-family="Bitstream-Vera Sans" font-size="8.00">+name : String</text>
<text text-anchor="start" x="215" y="-270.6" font-family="Bitstream-Vera Sans" font-size="8.00">+user_id : Integer</text>
<text text-anchor="start" x="215" y="-261.6" font-family="Bitstream-Vera Sans" font-size="8.00">+date_created : DateTime</text>
<text text-anchor="start" x="215" y="-252.6" font-family="Bitstream-Vera Sans" font-size="8.00">+request_date : DateTime</text>
<text text-anchor="start" x="215" y="-243.6" font-family="Bitstream-Vera Sans" font-size="8.00">+request_observatory_id : Integer</text>
<text text-anchor="start" x="215" y="-234.6" font-family="Bitstream-Vera Sans" font-size="8.00">+request_type : String</text>
<text text-anchor="start" x="215" y="-225.6" font-family="Bitstream-Vera Sans" font-size="8.00">+request_purpose : String</text>
<text text-anchor="start" x="215" y="-216.6" font-family="Bitstream-Vera Sans" font-size="8.00">+request_poweruser_id : Integer</text>
<text text-anchor="start" x="215" y="-207.6" font-family="Bitstream-Vera Sans" font-size="8.00">+remark : String</text>
<text text-anchor="start" x="250" y="-198.6" font-family="Bitstream-Vera Sans" font-size="8.00">+status : String</text>
</g>
<!-- ObservationRequest&#45;&gt;ObservationRequestPosition -->
<g id="edge12" class="edge">
<title>ObservationRequest&#45;&gt;ObservationRequestPosition</title>
<path fill="none" stroke="black" d="M283.61,-316.33C286.17,-404.28 286.43,-565.51 284.39,-668.31"/>
<polygon fill="black" stroke="black" points="284.18,-678.38 279.89,-668.29 284.28,-673.38 284.39,-668.38 284.39,-668.38 284.39,-668.38 284.28,-673.38 288.89,-668.47 284.18,-678.38 284.18,-678.38"/>
<text text-anchor="middle" x="264.68" y="-672.78" font-family="Bitstream-Vera Sans" font-size="7.00">+positions *</text>
</g>
<!-- Observatory -->
<g id="node11" class="node">
<title>Observatory</title>
<polygon fill="none" stroke="black" points="350,-421 350,-436 419,-436 419,-421 350,-421"/>
<text text-anchor="start" x="355" y="-426" font-family="Bitstream-Vera Sans" font-size="10.00">Observatory</text>
<polygon fill="none" stroke="black" points="350,-390 350,-421 419,-421 419,-390 350,-390"/>
<text text-anchor="start" x="352" y="-412.6" font-family="Bitstream-Vera Sans" font-size="8.00">+id : Integer</text>
<text text-anchor="start" x="352" y="-403.6" font-family="Bitstream-Vera Sans" font-size="8.00">+name : String</text>
<text text-anchor="start" x="352" y="-394.6" font-family="Bitstream-Vera Sans" font-size="8.00">+site_id : Integer</text>
</g>
<!-- ObservationRequest&#45;&gt;Observatory -->
<g id="edge8" class="edge">
<title>ObservationRequest&#45;&gt;Observatory</title>
<path fill="none" stroke="black" d="M327.02,-316.3C341.08,-336.94 355.55,-359.18 366.47,-377.01"/>
<polygon fill="black" stroke="black" points="371.83,-385.91 362.81,-379.67 369.25,-381.63 366.67,-377.35 366.67,-377.35 366.67,-377.35 369.25,-381.63 370.52,-375.02 371.83,-385.91 371.83,-385.91"/>
<text text-anchor="middle" x="338.83" y="-380.31" font-family="Bitstream-Vera Sans" font-size="7.00">+observatory_name</text>
</g>
<!-- Poweruser -->
<g id="node13" class="node">
<title>Poweruser</title>
<polygon fill="none" stroke="black" points="235,-93 235,-108 324,-108 324,-93 235,-93"/>
<text text-anchor="start" x="253.5" y="-98" font-family="Bitstream-Vera Sans" font-size="10.00">Poweruser</text>
<polygon fill="none" stroke="black" points="235,-17 235,-93 324,-93 324,-17 235,-17"/>
<text text-anchor="start" x="237" y="-84.6" font-family="Bitstream-Vera Sans" font-size="8.00">+id : Integer</text>
<text text-anchor="start" x="237" y="-75.6" font-family="Bitstream-Vera Sans" font-size="8.00">+name : String</text>
<text text-anchor="start" x="237" y="-66.6" font-family="Bitstream-Vera Sans" font-size="8.00">+email : String</text>
<text text-anchor="start" x="237" y="-57.6" font-family="Bitstream-Vera Sans" font-size="8.00">+mobilfone : String</text>
<text text-anchor="start" x="237" y="-48.6" font-family="Bitstream-Vera Sans" font-size="8.00">+fone : String</text>
<text text-anchor="start" x="237" y="-39.6" font-family="Bitstream-Vera Sans" font-size="8.00">+Einweisung : String</text>
<text text-anchor="start" x="237" y="-30.6" font-family="Bitstream-Vera Sans" font-size="8.00">+Status : String</text>
<text text-anchor="start" x="237" y="-21.6" font-family="Bitstream-Vera Sans" font-size="8.00">+last_login : DateTime</text>
</g>
<!-- ObservationRequest&#45;&gt;Poweruser -->
<g id="edge3" class="edge">
<title>ObservationRequest&#45;&gt;Poweruser</title>
<path fill="none" stroke="black" d="M272.61,-189.92C272.11,-168.32 272.13,-144.17 272.69,-122.84"/>
<polygon fill="black" stroke="black" points="273,-112.62 277.19,-122.75 272.85,-117.62 272.7,-122.62 272.7,-122.62 272.7,-122.62 272.85,-117.62 268.2,-122.48 273,-112.62 273,-112.62"/>
<text text-anchor="middle" x="236" y="-115.02" font-family="Bitstream-Vera Sans" font-size="7.00">+poweruser_name 0..1</text>
</g>
<!-- ObservationRequestLog -->
<g id="node9" class="node">
<title>ObservationRequestLog</title>
<polygon fill="none" stroke="black" points="1028,-1020 1028,-1035 1145,-1035 1145,-1020 1028,-1020"/>
<text text-anchor="start" x="1030" y="-1025" font-family="Bitstream-Vera Sans" font-size="10.00">ObservationRequestLog</text>
<polygon fill="none" stroke="black" points="1028,-962 1028,-1020 1145,-1020 1145,-962 1028,-962"/>
<text text-anchor="start" x="1030" y="-1011.6" font-family="Bitstream-Vera Sans" font-size="8.00">+id : Integer</text>
<text text-anchor="start" x="1030" y="-1002.6" font-family="Bitstream-Vera Sans" font-size="8.00">+order_id : Integer</text>
<text text-anchor="start" x="1030" y="-993.6" font-family="Bitstream-Vera Sans" font-size="8.00">+timestamp : DateTime</text>
<text text-anchor="start" x="1030" y="-984.6" font-family="Bitstream-Vera Sans" font-size="8.00">+type : String</text>
<text text-anchor="start" x="1030" y="-975.6" font-family="Bitstream-Vera Sans" font-size="8.00">+subtype : String</text>
<text text-anchor="start" x="1050" y="-966.6" font-family="Bitstream-Vera Sans" font-size="8.00">+text : String</text>
</g>
<!-- ObservationRequestPosition&#45;&gt;Filterset -->
<g id="edge11" class="edge">
<title>ObservationRequestPosition&#45;&gt;Filterset</title>
<path fill="none" stroke="black" d="M304.76,-849.57C313.63,-886.2 322.59,-927.39 327.97,-957.07"/>
<polygon fill="black" stroke="black" points="329.72,-967.06 323.56,-957.99 328.86,-962.13 328,-957.21 328,-957.21 328,-957.21 328.86,-962.13 332.43,-956.43 329.72,-967.06 329.72,-967.06"/>
<text text-anchor="middle" x="308.72" y="-961.46" font-family="Bitstream-Vera Sans" font-size="7.00">+filterset 0..1</text>
</g>
<!-- ObservationRequestPosition&#45;&gt;ObservationRequest -->
<g id="edge5" class="edge">
<title>ObservationRequestPosition&#45;&gt;ObservationRequest</title>
<path fill="none" stroke="black" d="M273.82,-678.38C271.63,-580.01 271.73,-419.34 274.11,-326.49"/>
<polygon fill="black" stroke="black" points="274.39,-316.33 278.61,-326.45 274.25,-321.33 274.11,-326.33 274.11,-326.33 274.11,-326.33 274.25,-321.33 269.62,-326.21 274.39,-316.33 274.39,-316.33"/>
<text text-anchor="middle" x="240.39" y="-318.73" font-family="Bitstream-Vera Sans" font-size="7.00">+observationrequest</text>
</g>
<!-- ObservationRequestPosition&#45;&gt;Telescope -->
<g id="edge4" class="edge">
<title>ObservationRequestPosition&#45;&gt;Telescope</title>
<path fill="none" stroke="black" d="M314.47,-678.39C326.52,-653.6 339.88,-627.21 351.69,-604.99"/>
<polygon fill="black" stroke="black" points="356.47,-596.06 355.71,-607 354.11,-600.47 351.75,-604.88 351.75,-604.88 351.75,-604.88 354.11,-600.47 347.78,-602.75 356.47,-596.06 356.47,-596.06"/>
<text text-anchor="middle" x="373.47" y="-598.46" font-family="Bitstream-Vera Sans" font-size="7.00">+telescope</text>
</g>
<!-- Observatory&#45;&gt;ObservationRequest -->
<g id="edge15" class="edge">
<title>Observatory&#45;&gt;ObservationRequest</title>
<path fill="none" stroke="black" d="M361.5,-385.91C349.18,-369.2 333.67,-346.63 319.4,-324.9"/>
<polygon fill="black" stroke="black" points="313.79,-316.3 323.02,-322.22 316.52,-320.49 319.25,-324.68 319.25,-324.68 319.25,-324.68 316.52,-320.49 315.49,-327.14 313.79,-316.3 313.79,-316.3"/>
<text text-anchor="middle" x="351.79" y="-318.7" font-family="Bitstream-Vera Sans" font-size="7.00">+observation_request *</text>
</g>
<!-- Site -->
<g id="node15" class="node">
<title>Site</title>
<polygon fill="none" stroke="black" points="379,-265 379,-280 451,-280 451,-265 379,-265"/>
<text text-anchor="start" x="406" y="-270" font-family="Bitstream-Vera Sans" font-size="10.00">Site</text>
<polygon fill="none" stroke="black" points="379,-225 379,-265 451,-265 451,-225 379,-225"/>
<text text-anchor="start" x="381" y="-256.6" font-family="Bitstream-Vera Sans" font-size="8.00">+id : Integer</text>
<text text-anchor="start" x="381" y="-247.6" font-family="Bitstream-Vera Sans" font-size="8.00">+name : String</text>
<text text-anchor="start" x="381" y="-238.6" font-family="Bitstream-Vera Sans" font-size="8.00">+longitude : Float</text>
<text text-anchor="start" x="383" y="-229.6" font-family="Bitstream-Vera Sans" font-size="8.00">+lattitude : Float</text>
</g>
<!-- Observatory&#45;&gt;Site -->
<g id="edge20" class="edge">
<title>Observatory&#45;&gt;Site</title>
<path fill="none" stroke="black" d="M383.95,-385.91C387.04,-361.06 394.18,-323.27 401.07,-294.5"/>
<polygon fill="black" stroke="black" points="403.49,-284.74 405.46,-295.53 402.29,-289.59 401.09,-294.44 401.09,-294.44 401.09,-294.44 402.29,-289.59 396.72,-293.36 403.49,-284.74 403.49,-284.74"/>
<text text-anchor="middle" x="395.99" y="-287.14" font-family="Bitstream-Vera Sans" font-size="7.00">+site</text>
</g>
<!-- Observatory&#45;&gt;Telescope -->
<g id="edge21" class="edge">
<title>Observatory&#45;&gt;Telescope</title>
<path fill="none" stroke="black" d="M389.45,-440.11C390.58,-455.86 390.98,-476.54 390.63,-495.7"/>
<polygon fill="black" stroke="black" points="390.37,-505.84 386.12,-495.73 390.49,-500.85 390.62,-495.85 390.62,-495.85 390.62,-495.85 390.49,-500.85 395.12,-495.96 390.37,-505.84 390.37,-505.84"/>
<text text-anchor="middle" x="368.87" y="-500.24" font-family="Bitstream-Vera Sans" font-size="7.00">+telescopes *</text>
</g>
<!-- Post -->
<g id="node12" class="node">
<title>Post</title>
<polygon fill="none" stroke="black" points="513,-568 513,-583 613,-583 613,-568 513,-568"/>
<text text-anchor="start" x="552.5" y="-573" font-family="Bitstream-Vera Sans" font-size="10.00">Post</text>
<polygon fill="none" stroke="black" points="513,-519 513,-568 613,-568 613,-519 513,-519"/>
<text text-anchor="start" x="515" y="-559.6" font-family="Bitstream-Vera Sans" font-size="8.00">+id : Integer</text>
<text text-anchor="start" x="515" y="-550.6" font-family="Bitstream-Vera Sans" font-size="8.00">+title : String</text>
<text text-anchor="start" x="515" y="-541.6" font-family="Bitstream-Vera Sans" font-size="8.00">+date_posted : DateTime</text>
<text text-anchor="start" x="515" y="-532.6" font-family="Bitstream-Vera Sans" font-size="8.00">+content : Text</text>
<text text-anchor="start" x="529" y="-523.6" font-family="Bitstream-Vera Sans" font-size="8.00">+user_id : Integer</text>
</g>
<!-- Post&#45;&gt;User -->
<g id="edge24" class="edge">
<title>Post&#45;&gt;User</title>
<path fill="none" stroke="black" d="M575.64,-587.01C583.8,-617.58 593.78,-662.69 600.72,-699.59"/>
<polygon fill="black" stroke="black" points="602.6,-709.76 596.36,-700.74 601.69,-704.84 600.79,-699.92 600.79,-699.92 600.79,-699.92 601.69,-704.84 605.21,-699.11 602.6,-709.76 602.6,-709.76"/>
<text text-anchor="middle" x="589.1" y="-704.16" font-family="Bitstream-Vera Sans" font-size="7.00">+author</text>
</g>
<!-- Poweruser&#45;&gt;ObservationRequest -->
<g id="edge22" class="edge">
<title>Poweruser&#45;&gt;ObservationRequest</title>
<path fill="none" stroke="black" d="M285,-112.62C285.73,-133.07 285.93,-157.28 285.59,-179.74"/>
<polygon fill="black" stroke="black" points="285.39,-189.92 281.08,-179.84 285.49,-184.92 285.58,-179.92 285.58,-179.92 285.58,-179.92 285.49,-184.92 290.08,-180.01 285.39,-189.92 285.39,-189.92"/>
<text text-anchor="middle" x="247.39" y="-184.32" font-family="Bitstream-Vera Sans" font-size="7.00">+observation_request *</text>
</g>
<!-- Role&#45;&gt;Group -->
<g id="edge6" class="edge">
<title>Role&#45;&gt;Group</title>
<path fill="none" stroke="black" d="M506.28,-786.79C519.3,-828.18 540.79,-918.31 549.33,-966.36"/>
<polygon fill="black" stroke="black" points="551.04,-976.5 544.94,-967.38 550.21,-971.57 549.38,-966.64 549.38,-966.64 549.38,-966.64 550.21,-971.57 553.82,-965.89 551.04,-976.5 551.04,-976.5"/>
<text text-anchor="middle" x="534.04" y="-970.9" font-family="Bitstream-Vera Sans" font-size="7.00">+groups *</text>
</g>
<!-- Site&#45;&gt;Observatory -->
<g id="edge18" class="edge">
<title>Site&#45;&gt;Observatory</title>
<path fill="none" stroke="black" d="M414.44,-284.74C410.92,-310.84 403.66,-348.35 396.86,-375.89"/>
<polygon fill="black" stroke="black" points="394.29,-385.91 392.41,-375.1 395.53,-381.07 396.77,-376.22 396.77,-376.22 396.77,-376.22 395.53,-381.07 401.13,-377.34 394.29,-385.91 394.29,-385.91"/>
<text text-anchor="middle" x="421.29" y="-380.31" font-family="Bitstream-Vera Sans" font-size="7.00">+observatories *</text>
</g>
<!-- SystemParameters -->
<g id="node16" class="node">
<title>SystemParameters</title>
<polygon fill="none" stroke="black" points="1179,-1007 1179,-1022 1271,-1022 1271,-1007 1179,-1007"/>
<text text-anchor="start" x="1181" y="-1012" font-family="Bitstream-Vera Sans" font-size="10.00">SystemParameters</text>
<polygon fill="none" stroke="black" points="1179,-976 1179,-1007 1271,-1007 1271,-976 1179,-976"/>
<text text-anchor="start" x="1181" y="-998.6" font-family="Bitstream-Vera Sans" font-size="8.00">+id : Integer</text>
<text text-anchor="start" x="1181" y="-989.6" font-family="Bitstream-Vera Sans" font-size="8.00">+parameter : String</text>
<text text-anchor="start" x="1191" y="-980.6" font-family="Bitstream-Vera Sans" font-size="8.00">+value : String</text>
</g>
<!-- SystemParametersHistory -->
<g id="node17" class="node">
<title>SystemParametersHistory</title>
<polygon fill="none" stroke="black" points="1305,-1016 1305,-1031 1431,-1031 1431,-1016 1305,-1016"/>
<text text-anchor="start" x="1307" y="-1021" font-family="Bitstream-Vera Sans" font-size="10.00">SystemParametersHistory</text>
<polygon fill="none" stroke="black" points="1305,-967 1305,-1016 1431,-1016 1431,-967 1305,-967"/>
<text text-anchor="start" x="1307" y="-1007.6" font-family="Bitstream-Vera Sans" font-size="8.00">+id : Integer</text>
<text text-anchor="start" x="1307" y="-998.6" font-family="Bitstream-Vera Sans" font-size="8.00">+parameter : String</text>
<text text-anchor="start" x="1307" y="-989.6" font-family="Bitstream-Vera Sans" font-size="8.00">+value : String</text>
<text text-anchor="start" x="1307" y="-980.6" font-family="Bitstream-Vera Sans" font-size="8.00">+history_reason : String</text>
<text text-anchor="start" x="1307" y="-971.6" font-family="Bitstream-Vera Sans" font-size="8.00">+history_timestamp : DateTime</text>
</g>
<!-- Telescope&#45;&gt;Filterset -->
<g id="edge10" class="edge">
<title>Telescope&#45;&gt;Filterset</title>
<path fill="none" stroke="black" d="M389.18,-596.06C390.3,-654.32 385.58,-760.05 373,-849.5 367.8,-886.46 358.58,-927.93 349.84,-957.63"/>
<polygon fill="black" stroke="black" points="346.9,-967.23 345.53,-956.35 348.37,-962.45 349.83,-957.67 349.83,-957.67 349.83,-957.67 348.37,-962.45 354.13,-958.99 346.9,-967.23 346.9,-967.23"/>
<text text-anchor="middle" x="365.4" y="-961.63" font-family="Bitstream-Vera Sans" font-size="7.00">+filtersets *</text>
</g>
<!-- Telescope&#45;&gt;ObservationRequestPosition -->
<g id="edge19" class="edge">
<title>Telescope&#45;&gt;ObservationRequestPosition</title>
<path fill="none" stroke="black" d="M367.68,-596.06C357.97,-617.39 345.16,-643.87 332.28,-669.41"/>
<polygon fill="black" stroke="black" points="327.73,-678.39 328.24,-667.44 329.99,-673.93 332.25,-669.47 332.25,-669.47 332.25,-669.47 329.99,-673.93 336.27,-671.51 327.73,-678.39 327.73,-678.39"/>
<text text-anchor="middle" x="380.73" y="-672.79" font-family="Bitstream-Vera Sans" font-size="7.00">+observation_request_position *</text>
</g>
<!-- Telescope&#45;&gt;Observatory -->
<g id="edge1" class="edge">
<title>Telescope&#45;&gt;Observatory</title>
<path fill="none" stroke="black" d="M377.63,-505.84C377.03,-487.86 377.14,-467.33 377.95,-450.24"/>
<polygon fill="black" stroke="black" points="378.55,-440.11 382.45,-450.35 378.26,-445.1 377.96,-450.09 377.96,-450.09 377.96,-450.09 378.26,-445.1 373.47,-449.82 378.55,-440.11 378.55,-440.11"/>
<text text-anchor="middle" x="349.55" y="-442.51" font-family="Bitstream-Vera Sans" font-size="7.00">+observatory 0..1</text>
</g>
<!-- User&#45;&gt;Group -->
<g id="edge7" class="edge">
<title>User&#45;&gt;Group</title>
<path fill="none" stroke="black" d="M601,-818.13C591.57,-863.92 575.73,-928.48 564.36,-966.51"/>
<polygon fill="black" stroke="black" points="561.28,-976.5 559.93,-965.62 562.75,-971.72 564.23,-966.94 564.23,-966.94 564.23,-966.94 562.75,-971.72 568.53,-968.27 561.28,-976.5 561.28,-976.5"/>
<text text-anchor="middle" x="578.28" y="-970.9" font-family="Bitstream-Vera Sans" font-size="7.00">+groups *</text>
</g>
<!-- User&#45;&gt;Post -->
<g id="edge9" class="edge">
<title>User&#45;&gt;Post</title>
<path fill="none" stroke="black" d="M590.69,-709.76C582.14,-675.05 572.68,-630.26 567,-597.28"/>
<polygon fill="black" stroke="black" points="565.29,-587.01 571.37,-596.14 566.11,-591.94 566.93,-596.88 566.93,-596.88 566.93,-596.88 566.11,-591.94 562.49,-597.62 565.29,-587.01 565.29,-587.01"/>
<text text-anchor="middle" x="551.79" y="-589.41" font-family="Bitstream-Vera Sans" font-size="7.00">+posts *</text>
</g>
<!-- UserPreferences -->
<g id="node20" class="node">
<title>UserPreferences</title>
<polygon fill="none" stroke="black" points="648,-563 648,-578 731,-578 731,-563 648,-563"/>
<text text-anchor="start" x="650" y="-568" font-family="Bitstream-Vera Sans" font-size="10.00">UserPreferences</text>
<polygon fill="none" stroke="black" points="648,-523 648,-563 731,-563 731,-523 648,-523"/>
<text text-anchor="start" x="650" y="-554.6" font-family="Bitstream-Vera Sans" font-size="8.00">+id : Integer</text>
<text text-anchor="start" x="650" y="-545.6" font-family="Bitstream-Vera Sans" font-size="8.00">+user_id : Integer</text>
<text text-anchor="start" x="650" y="-536.6" font-family="Bitstream-Vera Sans" font-size="8.00">+key : String</text>
<text text-anchor="start" x="656.5" y="-527.6" font-family="Bitstream-Vera Sans" font-size="8.00">+value : String</text>
</g>
<!-- User&#45;&gt;UserPreferences -->
<g id="edge13" class="edge">
<title>User&#45;&gt;UserPreferences</title>
<path fill="none" stroke="black" d="M622.49,-709.76C635.31,-673.2 653.81,-625.44 668.18,-592.09"/>
<polygon fill="black" stroke="black" points="672.3,-582.66 672.42,-593.63 670.3,-587.24 668.3,-591.82 668.3,-591.82 668.3,-591.82 670.3,-587.24 664.17,-590.02 672.3,-582.66 672.3,-582.66"/>
<text text-anchor="middle" x="648.3" y="-585.06" font-family="Bitstream-Vera Sans" font-size="7.00">+preferences *</text>
</g>
<!-- UserPreferences&#45;&gt;User -->
<g id="edge23" class="edge">
<title>UserPreferences&#45;&gt;User</title>
<path fill="none" stroke="black" d="M682.16,-582.66C672.25,-613.31 654.26,-661.33 638.38,-700.11"/>
<polygon fill="black" stroke="black" points="634.39,-709.76 634.05,-698.8 636.3,-705.13 638.21,-700.51 638.21,-700.51 638.21,-700.51 636.3,-705.13 642.37,-702.23 634.39,-709.76 634.39,-709.76"/>
<text text-anchor="middle" x="618.39" y="-704.16" font-family="Bitstream-Vera Sans" font-size="7.00">+user 0..1</text>
</g>
</g>
</svg>
