<?xml version="1.0" encoding="UTF-8" standalone="no"?>
<!DOCTYPE svg PUBLIC "-//W3C//DTD SVG 1.1//EN"
 "http://www.w3.org/Graphics/SVG/1.1/DTD/svg11.dtd">
<!-- Generated by graphviz version 2.43.0 (0)
 -->
<!-- Title: G Pages: 1 -->
<svg width="357pt" height="269pt"
 viewBox="0.00 0.00 356.76 269.00" xmlns="http://www.w3.org/2000/svg" xmlns:xlink="http://www.w3.org/1999/xlink">
<g id="graph0" class="graph" transform="scale(1 1) rotate(0) translate(4 265)">
<title>G</title>
<polygon fill="white" stroke="transparent" points="-4,4 -4,-265 352.76,-265 352.76,4 -4,4"/>
<!-- Group -->
<g id="node1" class="node">
<title>Group</title>
<polygon fill="none" stroke="black" points="118.94,-242 118.94,-257 208.94,-257 208.94,-242 118.94,-242"/>
<text text-anchor="start" x="148.94" y="-247" font-family="Bitstream-Vera Sans" font-size="10.00">Group</text>
<polygon fill="none" stroke="black" points="118.94,-220 118.94,-242 208.94,-242 208.94,-220 118.94,-220"/>
<text text-anchor="start" x="120.94" y="-233.6" font-family="Bitstream-Vera Sans" font-size="8.00">+id : Integer</text>
<text text-anchor="start" x="120.94" y="-224.6" font-family="Bitstream-Vera Sans" font-size="8.00">+groupname : String</text>
</g>
<!-- Role -->
<g id="node3" class="node">
<title>Role</title>
<polygon fill="none" stroke="black" points="33.94,-147 33.94,-162 115.94,-162 115.94,-147 33.94,-147"/>
<text text-anchor="start" x="63.94" y="-152" font-family="Bitstream-Vera Sans" font-size="10.00">Role</text>
<polygon fill="none" stroke="black" points="33.94,-125 33.94,-147 115.94,-147 115.94,-125 33.94,-125"/>
<text text-anchor="start" x="35.94" y="-138.6" font-family="Bitstream-Vera Sans" font-size="8.00">+id : Integer</text>
<text text-anchor="start" x="35.94" y="-129.6" font-family="Bitstream-Vera Sans" font-size="8.00">+rolename : String</text>
</g>
<!-- Group&#45;&gt;Role -->
<g id="edge4" class="edge">
<title>Group&#45;&gt;Role</title>
<path fill="none" stroke="black" d="M137.5,-216.43C124.51,-203.96 109.15,-188.09 96.83,-174.48"/>
<polygon fill="black" stroke="black" points="89.96,-166.78 99.97,-171.25 93.29,-170.51 96.61,-174.24 96.61,-174.24 96.61,-174.24 93.29,-170.51 93.25,-177.24 89.96,-166.78 89.96,-166.78"/>
<text text-anchor="middle" x="74.46" y="-169.18" font-family="Bitstream-Vera Sans" font-size="7.00">+roles *</text>
</g>
<!-- User -->
<g id="node4" class="node">
<title>User</title>
<polygon fill="none" stroke="black" points="211.94,-161 211.94,-176 296.94,-176 296.94,-161 211.94,-161"/>
<text text-anchor="start" x="242.94" y="-166" font-family="Bitstream-Vera Sans" font-size="10.00">User</text>
<polygon fill="none" stroke="black" points="211.94,-112 211.94,-161 296.94,-161 296.94,-112 211.94,-112"/>
<text text-anchor="start" x="213.94" y="-152.6" font-family="Bitstream-Vera Sans" font-size="8.00">+id : Integer</text>
<text text-anchor="start" x="213.94" y="-143.6" font-family="Bitstream-Vera Sans" font-size="8.00">+username : String</text>
<text text-anchor="start" x="213.94" y="-134.6" font-family="Bitstream-Vera Sans" font-size="8.00">+email : String</text>
<text text-anchor="start" x="213.94" y="-125.6" font-family="Bitstream-Vera Sans" font-size="8.00">+image_file : String</text>
<text text-anchor="start" x="214.94" y="-116.6" font-family="Bitstream-Vera Sans" font-size="8.00">+password : String</text>
</g>
<!-- Group&#45;&gt;User -->
<g id="edge1" class="edge">
<title>Group&#45;&gt;User</title>
<path fill="none" stroke="black" d="M179.02,-216.43C186.64,-207.79 196.27,-197.53 206.07,-187.51"/>
<polygon fill="black" stroke="black" points="213.22,-180.29 209.38,-190.57 209.7,-183.85 206.18,-187.4 206.18,-187.4 206.18,-187.4 209.7,-183.85 202.99,-184.24 213.22,-180.29 213.22,-180.29"/>
<text text-anchor="middle" x="197.22" y="-182.69" font-family="Bitstream-Vera Sans" font-size="7.00">+users *</text>
</g>
<!-- Post -->
<g id="node2" class="node">
<title>Post</title>
<polygon fill="none" stroke="black" points="199.94,-53 199.94,-68 308.94,-68 308.94,-53 199.94,-53"/>
<text text-anchor="start" x="243.44" y="-58" font-family="Bitstream-Vera Sans" font-size="10.00">Post</text>
<polygon fill="none" stroke="black" points="199.94,-4 199.94,-53 308.94,-53 308.94,-4 199.94,-4"/>
<text text-anchor="start" x="201.94" y="-44.6" font-family="Bitstream-Vera Sans" font-size="8.00">+id : Integer</text>
<text text-anchor="start" x="201.94" y="-35.6" font-family="Bitstream-Vera Sans" font-size="8.00">+title : String</text>
<text text-anchor="start" x="201.94" y="-26.6" font-family="Bitstream-Vera Sans" font-size="8.00">+date_posted : DateTime</text>
<text text-anchor="start" x="201.94" y="-17.6" font-family="Bitstream-Vera Sans" font-size="8.00">+content : Text</text>
<text text-anchor="start" x="217.94" y="-8.6" font-family="Bitstream-Vera Sans" font-size="8.00">+user_id : Integer</text>
</g>
<!-- Post&#45;&gt;User -->
<g id="edge2" class="edge">
<title>Post&#45;&gt;User</title>
<path fill="none" stroke="black" d="M260.35,-72.33C260.68,-80.49 260.77,-89.28 260.63,-97.8"/>
<polygon fill="black" stroke="black" points="260.33,-108 256.12,-97.87 260.48,-103 260.62,-98 260.62,-98 260.62,-98 260.48,-103 265.12,-98.13 260.33,-108 260.33,-108"/>
<text text-anchor="middle" x="244.83" y="-102.4" font-family="Bitstream-Vera Sans" font-size="7.00">+author</text>
</g>
<!-- Role&#45;&gt;Group -->
<g id="edge3" class="edge">
<title>Role&#45;&gt;Group</title>
<path fill="none" stroke="black" d="M101.6,-166.78C114.61,-179.28 129.97,-195.15 142.26,-208.74"/>
<polygon fill="black" stroke="black" points="149.1,-216.43 139.09,-211.95 145.78,-212.69 142.46,-208.96 142.46,-208.96 142.46,-208.96 145.78,-212.69 145.82,-205.97 149.1,-216.43 149.1,-216.43"/>
<text text-anchor="middle" x="130.6" y="-210.83" font-family="Bitstream-Vera Sans" font-size="7.00">+groups *</text>
</g>
<!-- User&#45;&gt;Group -->
<g id="edge5" class="edge">
<title>User&#45;&gt;Group</title>
<path fill="none" stroke="black" d="M226.36,-180.29C217.39,-189.89 207.35,-200.16 197.97,-209.34"/>
<polygon fill="black" stroke="black" points="190.62,-216.43 194.69,-206.25 194.22,-212.96 197.81,-209.49 197.81,-209.49 197.81,-209.49 194.22,-212.96 200.94,-212.72 190.62,-216.43 190.62,-216.43"/>
<text text-anchor="middle" x="172.12" y="-210.83" font-family="Bitstream-Vera Sans" font-size="7.00">+groups *</text>
</g>
<!-- User&#45;&gt;Post -->
<g id="edge6" class="edge">
<title>User&#45;&gt;Post</title>
<path fill="none" stroke="black" d="M247.55,-108C247.22,-99.85 247.12,-91.06 247.25,-82.54"/>
<polygon fill="black" stroke="black" points="247.54,-72.33 251.76,-82.45 247.4,-77.33 247.26,-82.32 247.26,-82.32 247.26,-82.32 247.4,-77.33 242.76,-82.2 247.54,-72.33 247.54,-72.33"/>
<text text-anchor="middle" x="231.54" y="-74.73" font-family="Bitstream-Vera Sans" font-size="7.00">+posts *</text>
</g>
</g>
</svg>
