<?xml version="1.0" encoding="UTF-8" standalone="no"?>
<!DOCTYPE svg PUBLIC "-//W3C//DTD SVG 1.1//EN"
 "http://www.w3.org/Graphics/SVG/1.1/DTD/svg11.dtd">
<!-- Generated by graphviz version 12.1.2 (20240928.0832)
 -->
<!-- Title: G Pages: 1 -->
<svg width="458pt" height="346pt"
 viewBox="0.00 0.00 458.25 345.69" xmlns="http://www.w3.org/2000/svg" xmlns:xlink="http://www.w3.org/1999/xlink">
<g id="graph0" class="graph" transform="scale(1 1) rotate(0) translate(4 341.69)">
<title>G</title>
<polygon fill="white" stroke="none" points="-4,4 -4,-341.69 454.25,-341.69 454.25,4 -4,4"/>
<!-- Group -->
<g id="node1" class="node">
<title>Group</title>
<polygon fill="none" stroke="black" points="58,-306.38 58,-321.62 114.5,-321.62 114.5,-306.38 58,-306.38"/>
<text text-anchor="start" x="73.12" y="-310.12" font-family="Bitstream-Vera Sans" font-size="10.00">Group</text>
<polygon fill="none" stroke="black" points="58,-284.38 58,-306.38 114.5,-306.38 114.5,-284.38 58,-284.38"/>
<text text-anchor="start" x="60" y="-296.77" font-family="Bitstream-Vera Sans" font-size="8.00">+id : Integer</text>
<text text-anchor="start" x="60" y="-287.77" font-family="Bitstream-Vera Sans" font-size="8.00">+name : String</text>
</g>
<!-- Role -->
<g id="node5" class="node">
<title>Role</title>
<polygon fill="none" stroke="black" points="8,-177.38 8,-192.62 64.5,-192.62 64.5,-177.38 8,-177.38"/>
<text text-anchor="start" x="26.12" y="-181.12" font-family="Bitstream-Vera Sans" font-size="10.00">Role</text>
<polygon fill="none" stroke="black" points="8,-155.38 8,-177.38 64.5,-177.38 64.5,-155.38 8,-155.38"/>
<text text-anchor="start" x="10" y="-167.78" font-family="Bitstream-Vera Sans" font-size="8.00">+id : Integer</text>
<text text-anchor="start" x="10" y="-158.78" font-family="Bitstream-Vera Sans" font-size="8.00">+name : String</text>
</g>
<!-- Group&#45;&gt;Role -->
<g id="edge1" class="edge">
<title>Group&#45;&gt;Role</title>
<path fill="none" stroke="black" d="M72.55,-280.46C62.84,-260.26 50.61,-229.83 42.84,-206.84"/>
<polygon fill="black" stroke="black" points="39.79,-197.39 47.15,-205.52 40.95,-200.98 42.86,-206.9 42.86,-206.9 42.86,-206.9 40.95,-200.98 38.58,-208.28 39.79,-197.39"/>
<text text-anchor="middle" x="27.42" y="-197.83" font-family="Bitstream-Vera Sans" font-size="7.00">+roles *</text>
</g>
<!-- User -->
<g id="node8" class="node">
<title>User</title>
<polygon fill="none" stroke="black" points="98.75,-204.38 98.75,-219.62 183.75,-219.62 183.75,-204.38 98.75,-204.38"/>
<text text-anchor="start" x="130.75" y="-208.12" font-family="Bitstream-Vera Sans" font-size="10.00">User</text>
<polygon fill="none" stroke="black" points="98.75,-128.38 98.75,-204.38 183.75,-204.38 183.75,-128.38 98.75,-128.38"/>
<text text-anchor="start" x="100.75" y="-194.78" font-family="Bitstream-Vera Sans" font-size="8.00">+id : Integer</text>
<text text-anchor="start" x="100.75" y="-185.78" font-family="Bitstream-Vera Sans" font-size="8.00">+name : String</text>
<text text-anchor="start" x="100.75" y="-176.78" font-family="Bitstream-Vera Sans" font-size="8.00">+email : String</text>
<text text-anchor="start" x="100.75" y="-167.78" font-family="Bitstream-Vera Sans" font-size="8.00">+image_file : String</text>
<text text-anchor="start" x="100.75" y="-158.78" font-family="Bitstream-Vera Sans" font-size="8.00">+password : String</text>
<text text-anchor="start" x="100.75" y="-149.78" font-family="Bitstream-Vera Sans" font-size="8.00">+surname : String</text>
<text text-anchor="start" x="100.75" y="-140.78" font-family="Bitstream-Vera Sans" font-size="8.00">+firstname : String</text>
<text text-anchor="start" x="100.75" y="-131.78" font-family="Bitstream-Vera Sans" font-size="8.00">+vds_number : Integer</text>
</g>
<!-- Group&#45;&gt;User -->
<g id="edge4" class="edge">
<title>Group&#45;&gt;User</title>
<path fill="none" stroke="black" d="M90.36,-280.46C94.86,-267.44 101.84,-250.17 109.24,-233.38"/>
<polygon fill="black" stroke="black" points="113.13,-224.7 113.14,-235.66 111.58,-228.15 109.04,-233.82 109.04,-233.82 109.04,-233.82 111.58,-228.15 104.93,-231.98 113.13,-224.7"/>
<text text-anchor="middle" x="100.5" y="-225.19" font-family="Bitstream-Vera Sans" font-size="7.00">+users *</text>
</g>
<!-- ObservationsRequest -->
<g id="node2" class="node">
<title>ObservationsRequest</title>
<polygon fill="none" stroke="black" points="190,-315.38 190,-330.62 288.5,-330.62 288.5,-315.38 190,-315.38"/>
<text text-anchor="start" x="192" y="-319.12" font-family="Bitstream-Vera Sans" font-size="10.00">ObservationsRequest</text>
<polygon fill="none" stroke="black" points="190,-275.38 190,-315.38 288.5,-315.38 288.5,-275.38 190,-275.38"/>
<text text-anchor="start" x="192" y="-305.77" font-family="Bitstream-Vera Sans" font-size="8.00">+id : Integer</text>
<text text-anchor="start" x="192" y="-296.77" font-family="Bitstream-Vera Sans" font-size="8.00">+name : String</text>
<text text-anchor="start" x="192" y="-287.77" font-family="Bitstream-Vera Sans" font-size="8.00">+user_id : Integer</text>
<text text-anchor="start" x="192" y="-278.77" font-family="Bitstream-Vera Sans" font-size="8.00">+telescope_id : Integer</text>
</g>
<!-- Observatory -->
<g id="node3" class="node">
<title>Observatory</title>
<polygon fill="none" stroke="black" points="342.62,-310.88 342.62,-326.12 405.88,-326.12 405.88,-310.88 342.62,-310.88"/>
<text text-anchor="start" x="347.62" y="-314.62" font-family="Bitstream-Vera Sans" font-size="10.00">Observatory</text>
<polygon fill="none" stroke="black" points="342.62,-279.88 342.62,-310.88 405.88,-310.88 405.88,-279.88 342.62,-279.88"/>
<text text-anchor="start" x="344.62" y="-301.27" font-family="Bitstream-Vera Sans" font-size="8.00">+id : Integer</text>
<text text-anchor="start" x="344.62" y="-292.27" font-family="Bitstream-Vera Sans" font-size="8.00">+name : String</text>
<text text-anchor="start" x="344.62" y="-283.27" font-family="Bitstream-Vera Sans" font-size="8.00">+site_id : Integer</text>
</g>
<!-- Site -->
<g id="node6" class="node">
<title>Site</title>
<polygon fill="none" stroke="black" points="248.5,-186.38 248.5,-201.62 314,-201.62 314,-186.38 248.5,-186.38"/>
<text text-anchor="start" x="272.62" y="-190.12" font-family="Bitstream-Vera Sans" font-size="10.00">Site</text>
<polygon fill="none" stroke="black" points="248.5,-146.38 248.5,-186.38 314,-186.38 314,-146.38 248.5,-146.38"/>
<text text-anchor="start" x="250.5" y="-176.78" font-family="Bitstream-Vera Sans" font-size="8.00">+id : Integer</text>
<text text-anchor="start" x="250.5" y="-167.78" font-family="Bitstream-Vera Sans" font-size="8.00">+name : String</text>
<text text-anchor="start" x="250.5" y="-158.78" font-family="Bitstream-Vera Sans" font-size="8.00">+longitude : Float</text>
<text text-anchor="start" x="252.75" y="-149.78" font-family="Bitstream-Vera Sans" font-size="8.00">+lattitude : Float</text>
</g>
<!-- Observatory&#45;&gt;Site -->
<g id="edge10" class="edge">
<title>Observatory&#45;&gt;Site</title>
<path fill="none" stroke="black" d="M349.63,-275.99C335.43,-258.33 317.83,-234.63 303.96,-214.63"/>
<polygon fill="black" stroke="black" points="298.37,-206.45 307.73,-212.16 300.5,-209.57 304.01,-214.7 304.01,-214.7 304.01,-214.7 300.5,-209.57 300.3,-217.24 298.37,-206.45"/>
<text text-anchor="middle" x="290.18" y="-207.04" font-family="Bitstream-Vera Sans" font-size="7.00">+site</text>
</g>
<!-- Telescope -->
<g id="node7" class="node">
<title>Telescope</title>
<polygon fill="none" stroke="black" points="348.25,-195.38 348.25,-210.62 442.25,-210.62 442.25,-195.38 348.25,-195.38"/>
<text text-anchor="start" x="373.12" y="-199.12" font-family="Bitstream-Vera Sans" font-size="10.00">Telescope</text>
<polygon fill="none" stroke="black" points="348.25,-137.38 348.25,-195.38 442.25,-195.38 442.25,-137.38 348.25,-137.38"/>
<text text-anchor="start" x="350.25" y="-185.78" font-family="Bitstream-Vera Sans" font-size="8.00">+id : Integer</text>
<text text-anchor="start" x="350.25" y="-176.78" font-family="Bitstream-Vera Sans" font-size="8.00">+name : String</text>
<text text-anchor="start" x="350.25" y="-167.78" font-family="Bitstream-Vera Sans" font-size="8.00">+observatory_id : Integer</text>
<text text-anchor="start" x="350.25" y="-158.78" font-family="Bitstream-Vera Sans" font-size="8.00">+aperature_mm : Float</text>
<text text-anchor="start" x="350.25" y="-149.78" font-family="Bitstream-Vera Sans" font-size="8.00">+focal_length_mm : Float</text>
<text text-anchor="start" x="353.25" y="-140.78" font-family="Bitstream-Vera Sans" font-size="8.00">+camera_name : String</text>
</g>
<!-- Observatory&#45;&gt;Telescope -->
<g id="edge9" class="edge">
<title>Observatory&#45;&gt;Telescope</title>
<path fill="none" stroke="black" d="M372.98,-275.99C374.35,-261.33 377.12,-242.51 380.35,-225.1"/>
<polygon fill="black" stroke="black" points="382.19,-215.69 384.69,-226.36 381.46,-219.4 380.27,-225.5 380.27,-225.5 380.27,-225.5 381.46,-219.4 375.86,-224.64 382.19,-215.69"/>
<text text-anchor="middle" x="361.04" y="-216.09" font-family="Bitstream-Vera Sans" font-size="7.00">+telescopes *</text>
</g>
<!-- Post -->
<g id="node4" class="node">
<title>Post</title>
<polygon fill="none" stroke="black" points="94.25,-56.88 94.25,-72.12 188.25,-72.12 188.25,-56.88 94.25,-56.88"/>
<text text-anchor="start" x="131.12" y="-60.62" font-family="Bitstream-Vera Sans" font-size="10.00">Post</text>
<polygon fill="none" stroke="black" points="94.25,-7.88 94.25,-56.88 188.25,-56.88 188.25,-7.88 94.25,-7.88"/>
<text text-anchor="start" x="96.25" y="-47.27" font-family="Bitstream-Vera Sans" font-size="8.00">+id : Integer</text>
<text text-anchor="start" x="96.25" y="-38.27" font-family="Bitstream-Vera Sans" font-size="8.00">+title : String</text>
<text text-anchor="start" x="96.25" y="-29.27" font-family="Bitstream-Vera Sans" font-size="8.00">+date_posted : DateTime</text>
<text text-anchor="start" x="96.25" y="-20.27" font-family="Bitstream-Vera Sans" font-size="8.00">+content : Text</text>
<text text-anchor="start" x="109.75" y="-11.28" font-family="Bitstream-Vera Sans" font-size="8.00">+user_id : Integer</text>
</g>
<!-- Post&#45;&gt;User -->
<g id="edge7" class="edge">
<title>Post&#45;&gt;User</title>
<path fill="none" stroke="black" d="M147.28,-75.76C147.85,-87.31 148.09,-100.53 147.97,-113.41"/>
<polygon fill="black" stroke="black" points="147.8,-123.38 143.47,-113.3 147.87,-119.6 147.97,-113.38 147.97,-113.38 147.97,-113.38 147.87,-119.6 152.47,-113.46 147.8,-123.38"/>
<text text-anchor="middle" x="136.16" y="-117.95" font-family="Bitstream-Vera Sans" font-size="7.00">+author</text>
</g>
<!-- Role&#45;&gt;Group -->
<g id="edge5" class="edge">
<title>Role&#45;&gt;Group</title>
<path fill="none" stroke="black" d="M49.8,-196.23C59.48,-216.31 71.72,-246.73 79.53,-269.8"/>
<polygon fill="black" stroke="black" points="82.61,-279.3 75.25,-271.17 81.44,-275.7 79.53,-269.78 79.53,-269.78 79.53,-269.78 81.44,-275.7 83.81,-268.4 82.61,-279.3"/>
<text text-anchor="middle" x="67.99" y="-273.81" font-family="Bitstream-Vera Sans" font-size="7.00">+groups *</text>
</g>
<!-- Site&#45;&gt;Observatory -->
<g id="edge2" class="edge">
<title>Site&#45;&gt;Observatory</title>
<path fill="none" stroke="black" d="M309.4,-205.44C324.05,-223.94 341.48,-247.64 354.67,-266.92"/>
<polygon fill="black" stroke="black" points="360.1,-274.98 350.78,-269.2 357.98,-271.84 354.51,-266.69 354.51,-266.69 354.51,-266.69 357.98,-271.84 358.25,-264.17 360.1,-274.98"/>
<text text-anchor="middle" x="335.28" y="-269.34" font-family="Bitstream-Vera Sans" font-size="7.00">+observatories *</text>
</g>
<!-- Telescope&#45;&gt;Observatory -->
<g id="edge3" class="edge">
<title>Telescope&#45;&gt;Observatory</title>
<path fill="none" stroke="black" d="M395.02,-214.49C392.97,-230.76 389.83,-249.51 386.47,-265.46"/>
<polygon fill="black" stroke="black" points="384.39,-274.8 382.17,-264.06 385.21,-271.11 386.56,-265.04 386.56,-265.04 386.56,-265.04 385.21,-271.11 390.95,-266.02 384.39,-274.8"/>
<text text-anchor="middle" x="404.37" y="-269.34" font-family="Bitstream-Vera Sans" font-size="7.00">+observatory</text>
</g>
<!-- User&#45;&gt;Group -->
<g id="edge8" class="edge">
<title>User&#45;&gt;Group</title>
<path fill="none" stroke="black" d="M126.79,-223.59C120.31,-239.39 112.67,-256.5 105.72,-270.7"/>
<polygon fill="black" stroke="black" points="101.35,-279.37 101.83,-268.41 103.05,-275.99 105.85,-270.44 105.85,-270.44 105.85,-270.44 103.05,-275.99 109.87,-272.46 101.35,-279.37"/>
<text text-anchor="middle" x="115.8" y="-273.81" font-family="Bitstream-Vera Sans" font-size="7.00">+groups *</text>
</g>
<!-- User&#45;&gt;Post -->
<g id="edge6" class="edge">
<title>User&#45;&gt;Post</title>
<path fill="none" stroke="black" d="M134.72,-124.6C134.4,-112.2 134.43,-98.92 134.79,-86.67"/>
<polygon fill="black" stroke="black" points="135.17,-76.98 139.28,-87.15 135.03,-80.76 134.78,-86.97 134.78,-86.97 134.78,-86.97 135.03,-80.76 130.28,-86.79 135.17,-76.98"/>
<text text-anchor="middle" x="122.1" y="-77.36" font-family="Bitstream-Vera Sans" font-size="7.00">+posts *</text>
</g>
</g>
</svg>
